<svg xmlns="http://www.w3.org/2000/svg" xmlns:xlink="http://www.w3.org/1999/xlink" width="1000" height="1000" viewBox="0 0 1000 1000">
  <defs>
    <clipPath id="clip-clap">
      <rect width="1000" height="1000"/>
    </clipPath>
  </defs>
  <g id="clap" clip-path="url(#clip-clap)">
    <g id="Gruppe_2" data-name="Gruppe 2" transform="translate(-845.6 -19.924)">
      <path id="Pfad_63" data-name="Pfad 63" d="M1098.474,226.946c16.433,4.213,30.758,25.913,39.4,39.4a712.835,712.835,0,0,0,48.455,66.362,343.305,343.305,0,0,1,50.772,82.373c5.688-19.593,10.744-39.185,17.275-58.356,4.424-12.64,14.958-37.921,27.809-45.505a37.049,37.049,0,0,1,10.113-4c-14.326-14.958-28.862-29.916-45.927-41.292-28.441-18.961-58.567-36.025-85.533-57.092a126.411,126.411,0,0,0-26.334-16.643c-22.753-10.744-12.64,16.854-5.9,25.913,12.43,17.065,28.862,30.548,43.82,45.295,16.854,16.432,37.5,31.39,49.719,51.826.632,1.053-.632,1.9-1.475,1.475-15.379-7.163-29.284-20.646-42.556-30.337-15.379-11.166-30.969-22.542-44.031-36.657-9.48-10.112-19.593-25.281-35.182-25.281a19.042,19.042,0,0,0-7.795,1.475A44.418,44.418,0,0,1,1098.474,226.946Z" transform="translate(132.786 119.519)" fill="#aa8972"/>
      <path id="Pfad_64" data-name="Pfad 64" d="M1286.536,404.826c-10.112-16.432-8.637-18.75-10.534-37.078-2.949-27.6-2.317-63.2-17.7-88.061-9.48-15.379-16.643-32.233-19.382-50.351s-26.124-56.039-29.073-16.222c-.843,10.955-4.214,20.646-4,31.812.632,22.963,1.686,45.505,2.739,68.469.21,5.478-5.267,9.9-10.113,9.059,6.952,23.806,5.9,59.62,6.32,70.575,1.264,29.494,3.16,60.042-5.267,88.693L1197,489.938c17.907,6.742,35.6,14.958,48.033,27.809a69.289,69.289,0,0,1,8.638,6.952c12.008-14.536,26.545-28.019,36.868-41.924,10.112-13.694,20.014-29.283,30.758-43.609-1.264-1.475-2.317-2.739-3.371-3.792C1307.393,424.419,1294.752,418.1,1286.536,404.826Z" transform="translate(249.989 125.977)" fill="#aa8972"/>
      <path id="Pfad_65" data-name="Pfad 65" d="M1358.205,333.413c-12.43-8.006-24.859-15.59-35.182-25.913-4.846,8.848-12.64,17.486-17.907,25.281a39.653,39.653,0,0,1-3.371,4.845c-8.006,12.219-17.275,24.017-26.123,35.6q-25.281,32.549-53.722,62.57c38.132,28.23,78.792,53.3,117.555,80.477q9.8,6.952,19.593,13.272c22.542-48.033,46.769-95.435,72.682-141.783-4.846-3.16-9.48-6.531-13.9-9.9C1398.444,362.7,1379.062,346.685,1358.205,333.413Z" transform="translate(277.546 249.848)" fill="#5d7958"/>
      <path id="Pfad_66" data-name="Pfad 66" d="M1636.943,508.336c-16.011-11.166-31.18-23.806-47.612-34.34-18.539-11.8-38.132-21.278-54.986-35.6a6.036,6.036,0,0,0-4.213-1.685c-2.317-2.317-6.11-2.949-9.9.632-2.528,2.317-5.056,4.845-7.374,7.374-1.264-1.475-2.317-2.949-3.16-3.792-10.744-11.8-28.23-18.961-35.393-34.129-7.584-16.222-5.9-34.761-6.531-52.036-1.053-29.916-12.64-58.146-23.174-85.744-6.952-17.907-33.286-108.918-65.519-71.207-9.691,11.166-11.8,38.553-12.008,52.036-.21,20.225,1.264,40.66,2.107,60.884a335.327,335.327,0,0,0-74.367-61.938,755.433,755.433,0,0,1-67.2-47.4c-12.64-9.9-33.075-25.913-49.929-24.649-22.542,1.685-22.542,22.963-15.59,41.5a35.846,35.846,0,0,0-10.744-1.053c-18.328.843-25.491,20.857-23.385,36.236a39.224,39.224,0,0,0,4.213,13.272c-.211,1.9-.211,3.792-.421,5.688a26.652,26.652,0,0,0-5.9.632,26.671,26.671,0,0,0-3.792-1.264c-17.7-5.056-30.969,11.587-33.708,26.755a44.717,44.717,0,0,0,1.264,20.435c-20.646-8.638-44.873,3.792-36.868,33.708a91.25,91.25,0,0,0,5.688,14.958c-18.75,1.9-29.494,28.441-18.96,50.14,11.376,23.6,26.755,44.663,41.924,65.73,23.806,32.865,48.666,65.308,76.9,94.592,34.129,35.6,86.8,59.831,110.814,104.915a79.073,79.073,0,0,0-12.851,12.219,7.774,7.774,0,0,0-1.686,7.163c0,.421-.21,1.053-.21,1.685,1.9,18.961,14.326,31.6,24.227,47.191,17.275,27.387,37.921,52.668,57.514,78.581,5.9,7.795,12.008,15.59,18.118,23.385,5.056-5.267,9.9-10.534,14.958-15.8-4.845-6.32-9.691-12.64-14.326-18.961-28.02-38.132-58.778-75-85.955-113.763,24.227-13.062,47.823-26.966,70.786-42.135,12.219-8.006,24.649-16.222,36.236-25.281,1.475-1.264,3.16-2.528,4.635-3.581,7.374-5.688,17.7-11.587,25.07-18.329,6.531,13.272,15.8,24.227,25.07,35.814,15.59,19.382,28.862,40.66,42.767,61.306q4.74,6.952,10.113,13.9l13.9-12.64c-2.739-3.581-5.267-7.163-8.006-10.744-11.587-15.8-21.91-32.444-34.129-47.612-13.694-17.065-29.494-32.444-40.871-51.193a7.5,7.5,0,0,0-3.371-2.949c-1.475-2.949-4.846-4.845-9.691-2.528-3.16,1.475-6.32,2.949-9.27,4.635-.632-1.9-1.264-3.371-1.686-4.424-6.531-14.536-20.856-26.966-22.542-43.609a73.22,73.22,0,0,1,2.317-25.281c18.96,7.584,36.868,17.064,51.4,30.758a86.569,86.569,0,0,0-8.427,15.59,7.583,7.583,0,0,0,.843,7.374,6.51,6.51,0,0,0,.421,1.685c7.795,17.275,23.6,25.491,38.132,37.078,25.281,20.435,52.668,37.71,79.424,56.25,8.216,5.478,16.433,10.955,24.438,16.432,2.949-6.531,6.11-13.272,9.27-19.8q-10.112-6.636-19.593-13.272c-38.764-27.387-79.424-52.457-117.555-80.477,18.75-20.014,36.868-40.87,53.721-62.57,9.059-11.587,18.118-23.174,26.124-35.6a39.655,39.655,0,0,1,3.371-4.845c5.267-7.795,13.062-16.643,17.907-25.281,10.323,10.534,22.753,18.118,35.182,25.913,20.856,13.483,40.238,29.494,60.042,44.452,4.635,3.371,9.27,6.742,13.9,9.9,3.16-5.477,6.109-10.955,9.27-16.432A78.622,78.622,0,0,0,1636.943,508.336ZM1161.033,239.1c15.59,0,25.7,15.168,35.182,25.281,13.062,14.115,28.441,25.491,44.031,36.657,13.272,9.691,26.966,23.174,42.556,30.337.843.421,2.107-.421,1.475-1.475-12.219-20.435-32.865-35.393-49.719-51.825-14.958-14.747-31.39-28.23-43.82-45.295-6.741-9.059-16.854-36.868,5.9-25.913a149.792,149.792,0,0,1,26.334,16.643c26.755,21.067,57.092,38.132,85.533,57.092,17.064,11.376,31.6,26.334,45.927,41.292a27.134,27.134,0,0,0-10.112,4c-12.851,7.584-23.6,32.865-27.809,45.505-6.531,19.171-11.8,38.764-17.275,58.356-13.062-29.7-29.494-57.092-50.772-82.373a712.846,712.846,0,0,1-48.455-66.362c-8.637-13.483-22.963-34.972-39.4-39.4a46.564,46.564,0,0,0-6.952-1.053A16.482,16.482,0,0,1,1161.033,239.1ZM1353.377,569.22c3.581,15.168,13.694,25.07,19.8,39.185.632,1.475,1.264,2.949,2.107,4.845-14.747,10.112-29.073,21.91-42.977,31.39-14.115,9.691-32.233,18.118-48.244,28.019a63.935,63.935,0,0,0-6.109-9.27c-12.64-26.545-42.767-46.348-65.309-63.623-26.334-20.225-46.137-46.769-71.629-67.2-14.537-20.646-32.444-40.028-47.191-59.831-12.851-17.275-62.781-76.685-27.177-88.061,10.113-3.16,21.7,25.7,25.07,31.812,8.427,15.168,22.753,46.559,41.081,52.457-6.531-46.98-58.146-76.474-62.781-125.561-1.053-11.8,20.857-5.688,29.494-3.371,5.056,8.427,10.744,16.222,15.8,23.6,18.118,26.966,42.977,51.4,56.249,81.109.632,1.475,3.371.632,2.949-1.053-8.006-30.337-26.755-54.354-43.82-80.056-10.744-16.222-22.963-31.39-28.652-50.14-4.213-14.326,9.48-22.331,22.331-18.118,14.747,5.056,19.593,22.542,25.281,35.182,7.795,17.486,18.96,33.076,29.916,48.665,9.48,13.272,18.328,30.547,30.758,42.345.632.632,2.107.211,1.9-.843-5.056-23.174-19.8-44.031-30.547-65.1-9.48-18.75-20.857-36.868-27.177-56.882-3.371-10.744-4.213-40.238,13.9-22.753A145.046,145.046,0,0,1,1188,300.191c18.75,28.441,41.924,54.143,62.781,81.32,17.907,23.385,29.073,52.036,41.924,78.37,3.371,6.952,13.9,4.845,15.8-2.107,6.32-21.91,12.43-43.82,19.171-65.73,3.371-10.744,9.691-18.75,13.9-28.862,15.379-36.657,25.491,6.531,22.331,24.649-3.16,17.907-1.9,36.236,2.317,53.721,6.741,28.441-5.267,61.938-11.166,89.115C1351.06,548.785,1348.953,550.47,1353.377,569.22Zm115.87-65.309c-10.323,13.694-24.859,27.387-36.868,41.924a89.1,89.1,0,0,0-8.637-6.952c-12.43-12.851-30.126-21.278-48.034-27.809l2.528-8.216c8.427-28.651,6.531-59.2,5.267-88.693-.421-10.955.632-46.769-6.32-70.575,5.056.843,10.323-3.792,10.113-9.059-.843-22.753-2.107-45.505-2.739-68.469-.21-11.166,3.16-20.857,4-31.812,2.949-39.817,26.124-1.9,29.073,16.222,2.739,18.118,9.9,34.972,19.382,50.351,15.379,24.859,14.747,60.463,17.7,88.061,1.9,18.329.421,20.646,10.533,37.078,8.216,13.272,20.857,19.593,31.18,30.758,1.053,1.053,2.107,2.528,3.371,3.792C1489.261,474.839,1479.57,490.429,1469.247,503.912Z" transform="translate(71.07 105.052)" fill="#292826"/>
      <path id="Pfad_67" data-name="Pfad 67" d="M1356.387,392.336c-4.213-17.7-5.477-35.814-2.317-53.721,3.16-18.118-6.952-61.516-22.331-24.649-4.214,10.112-10.534,18.329-13.9,28.862-6.741,21.91-12.851,43.82-19.171,65.73-1.9,6.742-12.43,9.059-15.8,2.107-12.851-26.545-24.017-55.2-41.924-78.37-20.856-26.966-44.241-52.879-62.781-81.32a145.022,145.022,0,0,0-19.593-24.227c-18.118-17.486-17.275,12.008-13.9,22.753,6.32,20.014,17.7,38.132,27.177,56.882,10.744,21.067,25.491,41.713,30.548,65.1.21,1.053-1.053,1.475-1.9.843-12.43-11.8-21.067-28.862-30.758-42.345-10.955-15.59-22.121-31.18-29.916-48.665-5.688-12.64-10.534-30.126-25.281-35.182-12.851-4.424-26.545,3.792-22.331,18.118,5.688,18.961,17.907,34.129,28.651,50.14,17.064,25.7,35.6,49.719,43.82,80.056.421,1.685-2.107,2.528-2.949,1.053-13.273-29.7-38.132-54.143-56.25-81.109-4.846-7.374-10.744-15.168-15.8-23.6-8.637-2.317-30.758-8.427-29.494,3.371,4.635,49.087,56.25,78.581,62.781,125.561-18.118-5.9-32.654-37.078-41.081-52.457-3.371-6.109-15.168-35.182-25.07-31.812-35.6,11.376,14.326,70.786,27.177,88.061,14.747,19.8,32.654,39.185,47.191,59.831,25.491,20.435,45.295,46.98,71.629,67.2,22.542,17.275,52.668,36.868,65.309,63.623a87.952,87.952,0,0,1,6.11,9.27c16.011-9.9,34.129-18.118,48.244-28.019,13.9-9.691,28.23-21.278,42.977-31.39-.632-1.685-1.475-3.371-2.107-4.845-6.11-13.9-16.222-24.017-19.8-39.185-4.424-18.75-2.317-20.435,1.686-38.553C1351.12,454.273,1363.129,420.776,1356.387,392.336Z" transform="translate(80.911 154.479)" fill="#ddb59c"/>
      <path id="Pfad_68" data-name="Pfad 68" d="M1308.1,420.414c-9.27-11.587-18.539-22.542-25.07-35.814-7.374,6.742-17.7,12.64-25.07,18.329-1.475,1.264-3.16,2.528-4.635,3.581-11.587,9.059-24.017,17.275-36.236,25.281-22.963,15.168-46.559,29.284-70.786,42.135,27.177,38.764,57.935,75.631,85.954,113.763,4.635,6.32,9.48,12.64,14.326,18.961,36.657-38.342,74.789-75.631,114.185-111.235a167.563,167.563,0,0,1-10.113-13.9C1336.748,461.074,1323.476,439.8,1308.1,420.414Z" transform="translate(193.878 335.177)" fill="#89af81"/>
      <path id="Pfad_69" data-name="Pfad 69" d="M1033.226,168.783c6.054,12.365,18.161,22.618,26.445,33.475,8.6,11.158,16.887,25.936,29.632,32.57,9.559,5.127,22.94-3.317,19.435-13.872-4.779-13.571-16.887-25.332-26.126-36.189-10.2-12.365-20.391-25.936-36.323-31.665-11.152-3.921-16.568,8.444-13.063,15.984C1033.544,169.085,1033.226,168.783,1033.226,168.783Z" transform="translate(41.43 52.816)" fill="#292826"/>
      <path id="Pfad_70" data-name="Pfad 70" d="M1088.375,196.732a5.472,5.472,0,0,0,9.059-2.107c3.371-9.691-.21-19.8-3.371-29.283-3.792-10.955-7.795-21.91-11.8-32.865-2.107-5.688-11.166-5.688-11.166,1.053a129.206,129.206,0,0,0,4.424,32.233C1078.052,176.507,1080.37,188.937,1088.375,196.732Z" transform="translate(110.652 51.56)" fill="#292826"/>
      <path id="Pfad_71" data-name="Pfad 71" d="M1131.2,271.427c14.527-11.893,12.5-37.164,13.851-55,2.027-28.988,2.365-57.6,8.784-85.849,3.716-16.352-17.229-22.67-22.635-7.433-8.783,24.528-12.5,50.172-15.2,76.187-2.365,21.555-10.135,53.888,4.054,71.727C1122.752,274.772,1127.482,274.029,1131.2,271.427Z" transform="translate(155.63 -32.72)" fill="#292826"/>
      <path id="Pfad_72" data-name="Pfad 72" d="M1162.73,193.2c7.584-6.531,13.483-15.379,18.75-23.806,5.056-8.216,11.376-16.011,14.747-25.07,1.475-4.213-2.949-9.059-7.163-7.584-19.171,5.688-27.809,32.022-38.343,47.191C1145.034,191.1,1156.2,198.68,1162.73,193.2Z" transform="translate(197.04 60.567)" fill="#292826"/>
      <path id="Pfad_73" data-name="Pfad 73" d="M1194.886,220.607c21.083-16.479,33.884-37.152,48.567-57.226,3.388-5.093-2.635-10.486-9.412-8.09-27.86,10.187-39.155,32.358-59.862,48.537C1160.625,214.614,1180.956,231.093,1194.886,220.607Z" transform="translate(219.791 60.186)" fill="#292826"/>
      <path id="Pfad_74" data-name="Pfad 74" d="M1048.107,228.892c4.214,2.107,11.587-1.053,9.27-6.742-5.688-14.536-20.014-24.649-32.022-33.708-5.688-4.213-12.219,3.371-9.27,8.848C1022.616,209.721,1035.467,222.361,1048.107,228.892Z" transform="translate(48.954 116.73)" fill="#292826"/>
      <path id="Pfad_75" data-name="Pfad 75" d="M1001.46,234.9c17.028,5.267,34.418,9.9,51.084,15.168,15.941,5.056,32.969,12.219,51.809,9.059,7.608-1.264,11.956-6.32,7.608-10.534-9.782-9.9-31.158-13.483-47.824-18.328-17.753-5.056-35.506-9.691-55.795-10.744C994.577,218.678,989.5,231.319,1001.46,234.9Z" transform="translate(-23.629 152.435)" fill="#292826"/>
      <path id="Pfad_76" data-name="Pfad 76" d="M1047.428,279.731c3.371-2.107,4.635-6.952,1.475-9.9-6.32-6.109-13.9-8.006-22.121-10.112-8.637-2.317-17.064-4.424-25.913-3.371-9.48,1.053-13.483,16.222-2.317,18.329a221.139,221.139,0,0,1,25.913,6.32C1032.47,283.313,1040.054,284.366,1047.428,279.731Z" transform="translate(22.879 192.927)" fill="#292826"/>
      <path id="Pfad_77" data-name="Pfad 77" d="M1072.7,294.065c-22.837-7.281-45.675,13.484-66.9,17.8-14.474,2.966-10.936,20.5,3.217,21.035,11.9.539,22.837-3.775,33.452-7.82,11.258-4.315,25.411-9.169,34.1-16.72C1082.023,303.5,1079.771,296.223,1072.7,294.065Z" transform="translate(-0.559 233.282)" fill="#292826"/>
      <path id="Pfad_78" data-name="Pfad 78" d="M1067.165,324.738c-14.36,2.257-25.13,15.476-32.908,27.728S1018.4,379.55,1017.8,394.7c-.3,13.219,15.557,16.766,21.839,6.449,6.581-10.962,11.967-22.892,19.147-33.532,6.881-10,14.958-19.023,18.249-31.6C1078.832,329.251,1073.447,324.093,1067.165,324.738Z" transform="translate(34.036 268.865)" fill="#292826"/>
      <path id="Pfad_79" data-name="Pfad 79" d="M1074.531,348.059c-7.163,9.48-10.112,20.857-12.851,32.233-3.16,12.219-6.741,25.07-7.374,37.71-.421,8.006,10.744,10.744,14.747,4.213,5.9-9.9,8.427-21.278,11.166-32.233,3.16-12.64,7.584-24.859,9.059-37.921C1090.331,343.424,1078.744,342.371,1074.531,348.059Z" transform="translate(92.053 290.82)" fill="#292826"/>
    </g>
  </g>
</svg>
