<svg xmlns="http://www.w3.org/2000/svg" xmlns:xlink="http://www.w3.org/1999/xlink" width="1000" height="1000" viewBox="0 0 1000 1000">
  <defs>
    <clipPath id="clip-explore">
      <rect width="1000" height="1000"/>
    </clipPath>
  </defs>
  <g id="explore" clip-path="url(#clip-explore)">
    <g id="Search_engines-bro" data-name="Search engines-bro" transform="translate(2.971 51.14)">
      <g id="freepik--background-simple--inject-276" transform="translate(109.454 106.978)">
        <path id="Pfad_452" data-name="Pfad 452" d="M127.628,566.99C230.56,684.969,334.493,699.906,480.586,727.865S733.952,736.5,813,665.247c91.267-82.363,87.661-271.04-52-338.222-43.63-21.036-95.586-27.4-133.806-56.986-72.991-56.452-132.025-144.291-249.2-160.786S181.81,171.359,181.81,171.359C85.579,276.739,24.7,448.922,127.628,566.99Z" transform="translate(-74.142 -106.978)" fill="#78bc8b"/>
        <path id="Pfad_453" data-name="Pfad 453" d="M127.628,566.99C230.56,684.969,334.493,699.906,480.586,727.865S733.952,736.5,813,665.247c91.267-82.363,87.661-271.04-52-338.222-43.63-21.036-95.586-27.4-133.806-56.986-72.991-56.452-132.025-144.291-249.2-160.786S181.81,171.359,181.81,171.359C85.579,276.739,24.7,448.922,127.628,566.99Z" transform="translate(-74.142 -106.978)" fill="#fff" opacity="0.7" style="isolation: isolate"/>
      </g>
      <g id="freepik--Shadow--inject-276" transform="translate(80.088 755.646)">
        <rect id="Rechteck_27" data-name="Rechteck 27" width="868.149" height="35.616" fill="#b9a896"/>
        <rect id="Rechteck_28" data-name="Rechteck 28" width="868.149" height="35.616" fill="#b9a896" opacity="0.5" style="isolation: isolate"/>
      </g>
      <g id="freepik--Plants--inject-276" transform="translate(45.34 246.176)">
        <path id="Pfad_454" data-name="Pfad 454" d="M284.815,295.9a124.662,124.662,0,0,0-12.488,4.83c2.226-1.625,4.452-3.317,6.678-5.031a323.8,323.8,0,0,0,28.248-25.6,307.329,307.329,0,0,1-33.39,28.115,70.92,70.92,0,0,0,4.274-8.771c2.226-5.543,2.627-11.13-2.649-14.091-6.522-3.651-14.4,1.8-12.332,11.13a34.414,34.414,0,0,0,7.19,14.135,213.2,213.2,0,0,1-24.041,14.4l-.779.4a79.274,79.274,0,0,0,4.652-9.461c2.092-5.521,2.627-11.13-2.671-14.068-6.522-3.673-14.4,1.8-12.31,11.13a34.48,34.48,0,0,0,7.034,13.979c-9.995,4.919-20.324,9.1-30.608,13.646l-1.491.668a68.613,68.613,0,0,0,5.587-6.834c3.339-4.9,5.142-10.2.69-14.313-5.476-5.075-14.447-1.6-14.58,8.014a34.392,34.392,0,0,0,3.606,15.293,157.361,157.361,0,0,0-27.291,16.294l-.267.223a61.074,61.074,0,0,0,3.161-5.654c2.515-5.365,3.45-10.885-1.625-14.247a8.281,8.281,0,0,0-12.421,3.851,7.814,7.814,0,0,0-2.649-2.538c-5.1-2.938-10.106.245-14.4,4.741-1.113,1.18-2.226,2.449-3.183,3.7a157.024,157.024,0,0,1,12.443-26.49,38.087,38.087,0,0,0,14.981,3.183c10.151,0,14.425-8.459,9.438-13.712-4.051-4.252-9.75-2.627-15.137.49a56.892,56.892,0,0,0-5.142,3.384,153.906,153.906,0,0,1,17.5-21.771,38.133,38.133,0,0,0,14.469,7.279c9.861,2.426,16.05-4.719,12.488-11.019-2.894-5.12-8.9-4.92-14.8-3.206a68.425,68.425,0,0,0-8.281,3.072c2.693-2.627,5.476-5.142,8.3-7.635,3.7-3.161,7.524-6.211,11.419-9.193a38.044,38.044,0,0,0,14.224,7.1c9.861,2.426,16.05-4.719,12.488-11.019-2.894-5.12-8.9-4.92-14.825-3.205-1.38.4-2.783.89-4.14,1.4,5.142-3.673,10.351-7.257,15.582-10.818l4.83-3.317a38.244,38.244,0,0,0,14.959,7.7c9.861,2.426,16.072-4.719,12.51-11.019-2.916-5.12-8.9-4.92-14.825-3.205q-3.495,1.068-6.878,2.471h0l2.983-2.226c1.825-1.313,3.651-2.649,5.432-4.051,2.226-1.669,4.341-3.517,6.5-5.3,1.247-.979,2.426-2.026,3.606-3.094a38.132,38.132,0,0,0,15.048,7.769c9.861,2.426,16.05-4.719,12.488-11.019-2.894-5.12-8.9-4.92-14.8-3.206a83.589,83.589,0,0,0-9.705,3.673h0c4.029-3.74,7.925-7.635,11.62-11.687.245-.289.467-.579.735-.846,1.581-1.759,3.139-3.539,4.652-5.387s3.473-4.274,5.12-6.5a127.394,127.394,0,0,0,16.562-28.938A126.885,126.885,0,0,1,281.476,198a179.131,179.131,0,0,1-22.861,24.152l-.913.779a84.59,84.59,0,0,0,5.031-10.039c2.115-5.521,2.627-11.13-2.671-14.068-6.5-3.673-14.4,1.8-12.31,11.13a34.615,34.615,0,0,0,7.813,14.87l-1.959,1.692-2.226,1.914c-1.291,1.046-2.627,2.048-3.962,3.05-.712.534-1.4,1.091-2.226,1.625-1.892,1.4-3.806,2.76-5.743,4.1l-2.783,1.892-3.161,2.226a77.308,77.308,0,0,0,4.853-9.817c2.115-5.543,2.627-11.13-2.649-14.068-6.522-3.673-14.425,1.8-12.332,11.13a34.436,34.436,0,0,0,7.457,14.491l-2.226,1.514-8.659,5.676-1.714,1.113-4.83,3.228-2.092,1.4c-2.226,1.536-4.452,3.094-6.678,4.7a78.571,78.571,0,0,0,4.675-9.95c2.226-5.521,2.627-11.13-2.649-14.068-6.522-3.673-14.4,1.8-12.31,11.13a34.3,34.3,0,0,0,7.613,14.647c-3.784,2.783-7.524,5.632-11.13,8.615-2.649,2.226-5.253,4.452-7.813,6.856A61.318,61.318,0,0,0,186,271.551c2.092-5.543,2.627-11.13-2.671-14.068-6.522-3.673-14.4,1.8-12.31,11.13a34.482,34.482,0,0,0,7.034,13.979,156.312,156.312,0,0,0-19.389,23.44,59.447,59.447,0,0,0,1.469-7.39c.712-5.877-.134-11.4-5.988-13-7.212-1.981-13.534,5.231-9.238,13.824a34.481,34.481,0,0,0,10.329,11.954,162.012,162.012,0,0,0-13.979,28.938,59.745,59.745,0,0,0-.623-6.3c-1-5.854-3.361-10.908-9.438-10.8-7.479.156-11.509,8.9-4.942,15.894a33.926,33.926,0,0,0,12.51,8.259,203.348,203.348,0,0,0-6.166,23.752c-.267,1.269-.467,2.538-.712,3.806-.267.245-.534.49-.779.757-.267-1.091-.579-2.226-.935-3.272-1.87-5.61-4.986-10.262-10.974-9.194-7.346,1.291-9.995,10.507-2.426,16.45a33.679,33.679,0,0,0,13,6.077c0,.223.178.423.289.645-.824,6.033-1.447,12.11-1.825,18.209-.289,4.452-.445,9.1-.534,13.668-6.366,0-10.863,6.99-6.478,14.558a32.1,32.1,0,0,0,7.012,8.281c.534,8.57,1.38,17.14,2.515,25.644a7.057,7.057,0,0,0-6.812-1.581c-4.007,1.091-5.81,4.319-6.455,8.281a7.924,7.924,0,0,0-2.226,5.5c-2.983-4.452-5.81-8.9-8.548-13.6a37.841,37.841,0,0,0,10.173-11.865c4.786-8.9-.623-16.717-7.591-14.825-5.7,1.558-6.945,7.346-6.678,13.556a62.151,62.151,0,0,0,.668,7.034l-2.938-5.164c-2.449-4.452-4.452-8.9-6.856-13.356-.579-1.091-1.091-2.226-1.558-3.339a37.841,37.841,0,0,0,12.176-9.728c6.389-7.88,2.538-16.539-4.675-15.983-5.877.467-8.214,5.921-9.193,12.065a75.678,75.678,0,0,0-.712,8.081l-2.092-4.831a248.179,248.179,0,0,1-10.974-33.7,37.843,37.843,0,0,0,14.113-8.9c7.146-7.235,4.185-16.205-3.05-16.383-5.877-.134-8.748,5.053-10.351,11.13a81.34,81.34,0,0,0-1.759,9.794q-2.337-9.883-4.007-20.034c-.757-4.14-1.247-8.348-1.759-12.533a38.377,38.377,0,0,0,15.716-7.057c8.014-6.233,6.255-15.582-.913-16.628-5.81-.913-9.327,3.873-11.687,9.639a96.208,96.208,0,0,0-3.473,11.13c-.445-4.853-.957-9.728-1.18-14.6a228.316,228.316,0,0,1,0-30.229,229.123,229.123,0,0,0-1.046,30.274c0,4.652.4,9.283.69,13.935a74.416,74.416,0,0,0-4.452-9.193c-3.027-5.1-7.079-8.9-12.688-6.678-6.923,2.849-7.524,12.421,1.158,16.606A34.458,34.458,0,0,0,68.045,356.7c.4,4.163.757,8.3,1.38,12.421.868,6.678,1.981,13.089,3.295,19.567a66.248,66.248,0,0,0-4.741-7.145c-3.673-4.652-8.17-7.947-13.356-4.942-6.478,3.717-5.854,13.356,3.295,16.317a34.5,34.5,0,0,0,16.005,1.069,257.622,257.622,0,0,0,9.995,34.169l1.313,3.339a48.382,48.382,0,0,0-3.807-4.452c-4.118-4.274-8.9-7.1-13.868-3.562-6.077,4.452-4.452,13.8,4.9,15.894a34.438,34.438,0,0,0,15.582-.445c.467,1.135.935,2.226,1.491,3.383,2.226,4.586,4.207,9.283,6.545,13.779l1.937,3.9c-1.158-1-2.36-1.959-3.606-2.849-4.853-3.406-10.106-5.276-14.291-.89-5.164,5.409-1.825,14.4,7.791,14.692a34.081,34.081,0,0,0,14.558-2.894c2.76,4.986,5.587,9.906,8.659,14.736,1.135,1.848,2.226,3.673,3.517,5.5a57.2,57.2,0,0,0-5.521-4.452c-4.853-3.406-10.106-5.276-14.313-.89-5.142,5.409-1.8,14.4,7.813,14.692A34.615,34.615,0,0,0,118.464,494q2.4,3.339,4.942,6.678c-3.584,4.163-2.4,11.13,4.875,14.313a32.479,32.479,0,0,0,11.13,2.471c.445.356.89.712,1.38,1.046l.223.178q6.9,25.777,16.361,50.8c2.671,7.1,5.543,14.135,8.5,21.125H139.166V695.942h81.628V590.518H177.343c-3.717-8.125-7.3-16.339-10.64-24.642-5.454-13.623-10.4-27.469-14.692-41.515h0a18.973,18.973,0,0,0,2.226.512,9.7,9.7,0,0,0,3.005.133l-1.158-7.324H155.3a13.739,13.739,0,0,1-1.38-.267,21.227,21.227,0,0,1-3.005-1.113l-1.158-.534a37.688,37.688,0,0,0,11.776-6.678c7.724-6.678,5.543-15.8-1.67-16.584-5.832-.646-9.127,4.3-11.13,10.151-.6,1.669-1.091,3.406-1.514,5.1-.423-1.558-.846-3.116-1.247-4.675-1.18-4.608-2.226-9.26-3.295-13.913a37.465,37.465,0,0,0,12.755-6.923c7.724-6.678,5.521-15.782-1.669-16.562-5.854-.646-9.127,4.3-11.13,10.151-.6,1.692-1.113,3.45-1.558,5.187-.668-3.383-1.313-6.789-1.914-10.2-.423-2.515-.824-5.053-1.2-7.591-.134-3.606-.2-7.212-.156-10.841,0-1.981,0-3.962.178-5.944a38.065,38.065,0,0,0,13.512,1.714c10.151-.668,13.89-9.349,8.592-14.269-4.318-4.029-9.906-2.026-15.092,1.4a70.973,70.973,0,0,0-6.678,5.142,162.714,162.714,0,0,1,3.851-25.154,128.414,128.414,0,0,1,4.252-14.38,38.131,38.131,0,0,0,14.491,2.026c10.151-.646,13.89-9.327,8.592-14.269-4.3-4.007-9.906-2.026-15.092,1.425a58.552,58.552,0,0,0-5.209,4.029,107.639,107.639,0,0,1,6.812-13.356,98.148,98.148,0,0,1,19.01-23.173,37.641,37.641,0,0,0,13.467,7.991c9.661,3.161,16.361-3.517,13.356-10.062-2.515-5.32-8.437-5.565-14.536-4.3a61.57,61.57,0,0,0-6.945,1.914l.156-.134a153.6,153.6,0,0,1,26.712-16.74,38.311,38.311,0,0,0,12.421,10.551c9.038,4.652,16.717-.868,14.714-7.813-1.625-5.654-7.435-6.834-13.646-6.678a66.169,66.169,0,0,0-7.279.8c10.039-4.741,20.279-9.216,30.163-14.447h.223a37.842,37.842,0,0,0,15.337,8.014c9.861,2.449,16.05-4.719,12.488-11.13-2.894-5.12-8.9-4.9-14.8-3.206-1.67.49-3.339,1.091-4.964,1.714a221.056,221.056,0,0,0,19.166-12.51l.512.556v-.289a38.643,38.643,0,0,0,15.471,8.125c9.839,2.426,16.05-4.719,12.488-11.13C296.724,293.989,290.8,294.189,284.815,295.9ZM129.171,497.6c-2.026-2.36-3.94-4.831-5.81-7.324.445-.4.935-.846,1.425-1.336a34.994,34.994,0,0,0,8.57,1.536v.468l1.358-.289c.712,3.517,1.447,7.012,2.226,10.507A9.1,9.1,0,0,0,129.171,497.6Zm7.257-83.81c-.69,2.627-1.269,5.253-1.825,7.9l-.334-.467q0-8.147.245-16.25c.156-3.784.423-7.546.757-11.33a39.213,39.213,0,0,0,6.01,5.009,145.818,145.818,0,0,0-4.83,15.137Zm9.127-24.931c.134-.979.245-1.981.289-2.961V384.41c.8-.245,1.625-.534,2.426-.868-.89,1.759-1.825,3.539-2.693,5.32Zm11.6-18.81a7.1,7.1,0,0,0-4.074-3.829c-5.5-2.226-9.95,1.781-13.49,6.9l-.178.245h-.356a6.689,6.689,0,0,0-1.135-.156,1.847,1.847,0,0,1,.156-.913,198.9,198.9,0,0,1,5.7-23.8,37.843,37.843,0,0,0,15.248-1.18A12.978,12.978,0,0,0,166.5,342a34.369,34.369,0,0,0,5.5,12.488,102.157,102.157,0,0,0-14.825,15.582Z" transform="translate(-45.34 -169.51)" fill="#78bc8b"/>
        <path id="Pfad_455" data-name="Pfad 455" d="M284.815,295.9a124.662,124.662,0,0,0-12.488,4.83c2.226-1.625,4.452-3.317,6.678-5.031a323.8,323.8,0,0,0,28.248-25.6,307.329,307.329,0,0,1-33.39,28.115,70.92,70.92,0,0,0,4.274-8.771c2.226-5.543,2.627-11.13-2.649-14.091-6.522-3.651-14.4,1.8-12.332,11.13a34.414,34.414,0,0,0,7.19,14.135,213.2,213.2,0,0,1-24.041,14.4l-.779.4a79.274,79.274,0,0,0,4.652-9.461c2.092-5.521,2.627-11.13-2.671-14.068-6.522-3.673-14.4,1.8-12.31,11.13a34.48,34.48,0,0,0,7.034,13.979c-9.995,4.919-20.324,9.1-30.608,13.646l-1.491.668a68.613,68.613,0,0,0,5.587-6.834c3.339-4.9,5.142-10.2.69-14.313-5.476-5.075-14.447-1.6-14.58,8.014a34.392,34.392,0,0,0,3.606,15.293,157.361,157.361,0,0,0-27.291,16.294l-.267.223a61.074,61.074,0,0,0,3.161-5.654c2.515-5.365,3.45-10.885-1.625-14.247a8.281,8.281,0,0,0-12.421,3.851,7.814,7.814,0,0,0-2.649-2.538c-5.1-2.938-10.106.245-14.4,4.741-1.113,1.18-2.226,2.449-3.183,3.7a157.024,157.024,0,0,1,12.443-26.49,38.087,38.087,0,0,0,14.981,3.183c10.151,0,14.425-8.459,9.438-13.712-4.051-4.252-9.75-2.627-15.137.49a56.892,56.892,0,0,0-5.142,3.384,153.906,153.906,0,0,1,17.5-21.771,38.133,38.133,0,0,0,14.469,7.279c9.861,2.426,16.05-4.719,12.488-11.019-2.894-5.12-8.9-4.92-14.8-3.206a68.425,68.425,0,0,0-8.281,3.072c2.693-2.627,5.476-5.142,8.3-7.635,3.7-3.161,7.524-6.211,11.419-9.193a38.044,38.044,0,0,0,14.224,7.1c9.861,2.426,16.05-4.719,12.488-11.019-2.894-5.12-8.9-4.92-14.825-3.205-1.38.4-2.783.89-4.14,1.4,5.142-3.673,10.351-7.257,15.582-10.818l4.83-3.317a38.244,38.244,0,0,0,14.959,7.7c9.861,2.426,16.072-4.719,12.51-11.019-2.916-5.12-8.9-4.92-14.825-3.205q-3.495,1.068-6.878,2.471h0l2.983-2.226c1.825-1.313,3.651-2.649,5.432-4.051,2.226-1.669,4.341-3.517,6.5-5.3,1.247-.979,2.426-2.026,3.606-3.094a38.132,38.132,0,0,0,15.048,7.769c9.861,2.426,16.05-4.719,12.488-11.019-2.894-5.12-8.9-4.92-14.8-3.206a83.589,83.589,0,0,0-9.705,3.673h0c4.029-3.74,7.925-7.635,11.62-11.687.245-.289.467-.579.735-.846,1.581-1.759,3.139-3.539,4.652-5.387s3.473-4.274,5.12-6.5a127.394,127.394,0,0,0,16.562-28.938A126.885,126.885,0,0,1,281.476,198a179.131,179.131,0,0,1-22.861,24.152l-.913.779a84.59,84.59,0,0,0,5.031-10.039c2.115-5.521,2.627-11.13-2.671-14.068-6.5-3.673-14.4,1.8-12.31,11.13a34.615,34.615,0,0,0,7.813,14.87l-1.959,1.692-2.226,1.914c-1.291,1.046-2.627,2.048-3.962,3.05-.712.534-1.4,1.091-2.226,1.625-1.892,1.4-3.806,2.76-5.743,4.1l-2.783,1.892-3.161,2.226a77.308,77.308,0,0,0,4.853-9.817c2.115-5.543,2.627-11.13-2.649-14.068-6.522-3.673-14.425,1.8-12.332,11.13a34.436,34.436,0,0,0,7.457,14.491l-2.226,1.514-8.659,5.676-1.714,1.113-4.83,3.228-2.092,1.4c-2.226,1.536-4.452,3.094-6.678,4.7a78.571,78.571,0,0,0,4.675-9.95c2.226-5.521,2.627-11.13-2.649-14.068-6.522-3.673-14.4,1.8-12.31,11.13a34.3,34.3,0,0,0,7.613,14.647c-3.784,2.783-7.524,5.632-11.13,8.615-2.649,2.226-5.253,4.452-7.813,6.856A61.318,61.318,0,0,0,186,271.551c2.092-5.543,2.627-11.13-2.671-14.068-6.522-3.673-14.4,1.8-12.31,11.13a34.482,34.482,0,0,0,7.034,13.979,156.312,156.312,0,0,0-19.389,23.44,59.447,59.447,0,0,0,1.469-7.39c.712-5.877-.134-11.4-5.988-13-7.212-1.981-13.534,5.231-9.238,13.824a34.481,34.481,0,0,0,10.329,11.954,162.012,162.012,0,0,0-13.979,28.938,59.745,59.745,0,0,0-.623-6.3c-1-5.854-3.361-10.908-9.438-10.8-7.479.156-11.509,8.9-4.942,15.894a33.926,33.926,0,0,0,12.51,8.259,203.348,203.348,0,0,0-6.166,23.752c-.267,1.269-.467,2.538-.712,3.806-.267.245-.534.49-.779.757-.267-1.091-.579-2.226-.935-3.272-1.87-5.61-4.986-10.262-10.974-9.194-7.346,1.291-9.995,10.507-2.426,16.45a33.679,33.679,0,0,0,13,6.077c0,.223.178.423.289.645-.824,6.033-1.447,12.11-1.825,18.209-.289,4.452-.445,9.1-.534,13.668-6.366,0-10.863,6.99-6.478,14.558a32.1,32.1,0,0,0,7.012,8.281c.534,8.57,1.38,17.14,2.515,25.644a7.057,7.057,0,0,0-6.812-1.581c-4.007,1.091-5.81,4.319-6.455,8.281a7.924,7.924,0,0,0-2.226,5.5c-2.983-4.452-5.81-8.9-8.548-13.6a37.841,37.841,0,0,0,10.173-11.865c4.786-8.9-.623-16.717-7.591-14.825-5.7,1.558-6.945,7.346-6.678,13.556a62.151,62.151,0,0,0,.668,7.034l-2.938-5.164c-2.449-4.452-4.452-8.9-6.856-13.356-.579-1.091-1.091-2.226-1.558-3.339a37.841,37.841,0,0,0,12.176-9.728c6.389-7.88,2.538-16.539-4.675-15.983-5.877.467-8.214,5.921-9.193,12.065a75.678,75.678,0,0,0-.712,8.081l-2.092-4.831a248.179,248.179,0,0,1-10.974-33.7,37.843,37.843,0,0,0,14.113-8.9c7.146-7.235,4.185-16.205-3.05-16.383-5.877-.134-8.748,5.053-10.351,11.13a81.34,81.34,0,0,0-1.759,9.794q-2.337-9.883-4.007-20.034c-.757-4.14-1.247-8.348-1.759-12.533a38.377,38.377,0,0,0,15.716-7.057c8.014-6.233,6.255-15.582-.913-16.628-5.81-.913-9.327,3.873-11.687,9.639a96.208,96.208,0,0,0-3.473,11.13c-.445-4.853-.957-9.728-1.18-14.6a228.316,228.316,0,0,1,0-30.229,229.123,229.123,0,0,0-1.046,30.274c0,4.652.4,9.283.69,13.935a74.416,74.416,0,0,0-4.452-9.193c-3.027-5.1-7.079-8.9-12.688-6.678-6.923,2.849-7.524,12.421,1.158,16.606A34.458,34.458,0,0,0,68.045,356.7c.4,4.163.757,8.3,1.38,12.421.868,6.678,1.981,13.089,3.295,19.567a66.248,66.248,0,0,0-4.741-7.145c-3.673-4.652-8.17-7.947-13.356-4.942-6.478,3.717-5.854,13.356,3.295,16.317a34.5,34.5,0,0,0,16.005,1.069,257.622,257.622,0,0,0,9.995,34.169l1.313,3.339a48.382,48.382,0,0,0-3.807-4.452c-4.118-4.274-8.9-7.1-13.868-3.562-6.077,4.452-4.452,13.8,4.9,15.894a34.438,34.438,0,0,0,15.582-.445c.467,1.135.935,2.226,1.491,3.383,2.226,4.586,4.207,9.283,6.545,13.779l1.937,3.9c-1.158-1-2.36-1.959-3.606-2.849-4.853-3.406-10.106-5.276-14.291-.89-5.164,5.409-1.825,14.4,7.791,14.692a34.081,34.081,0,0,0,14.558-2.894c2.76,4.986,5.587,9.906,8.659,14.736,1.135,1.848,2.226,3.673,3.517,5.5a57.2,57.2,0,0,0-5.521-4.452c-4.853-3.406-10.106-5.276-14.313-.89-5.142,5.409-1.8,14.4,7.813,14.692A34.615,34.615,0,0,0,118.464,494q2.4,3.339,4.942,6.678c-3.584,4.163-2.4,11.13,4.875,14.313a32.479,32.479,0,0,0,11.13,2.471c.445.356.89.712,1.38,1.046l.223.178q6.9,25.777,16.361,50.8c2.671,7.1,5.543,14.135,8.5,21.125H139.166V695.942h81.628V590.518H177.343c-3.717-8.125-7.3-16.339-10.64-24.642-5.454-13.623-10.4-27.469-14.692-41.515h0a18.973,18.973,0,0,0,2.226.512,9.7,9.7,0,0,0,3.005.133l-1.158-7.324H155.3a13.739,13.739,0,0,1-1.38-.267,21.227,21.227,0,0,1-3.005-1.113l-1.158-.534a37.688,37.688,0,0,0,11.776-6.678c7.724-6.678,5.543-15.8-1.67-16.584-5.832-.646-9.127,4.3-11.13,10.151-.6,1.669-1.091,3.406-1.514,5.1-.423-1.558-.846-3.116-1.247-4.675-1.18-4.608-2.226-9.26-3.295-13.913a37.465,37.465,0,0,0,12.755-6.923c7.724-6.678,5.521-15.782-1.669-16.562-5.854-.646-9.127,4.3-11.13,10.151-.6,1.692-1.113,3.45-1.558,5.187-.668-3.383-1.313-6.789-1.914-10.2-.423-2.515-.824-5.053-1.2-7.591-.134-3.606-.2-7.212-.156-10.841,0-1.981,0-3.962.178-5.944a38.065,38.065,0,0,0,13.512,1.714c10.151-.668,13.89-9.349,8.592-14.269-4.318-4.029-9.906-2.026-15.092,1.4a70.973,70.973,0,0,0-6.678,5.142,162.714,162.714,0,0,1,3.851-25.154,128.414,128.414,0,0,1,4.252-14.38,38.131,38.131,0,0,0,14.491,2.026c10.151-.646,13.89-9.327,8.592-14.269-4.3-4.007-9.906-2.026-15.092,1.425a58.552,58.552,0,0,0-5.209,4.029,107.639,107.639,0,0,1,6.812-13.356,98.148,98.148,0,0,1,19.01-23.173,37.641,37.641,0,0,0,13.467,7.991c9.661,3.161,16.361-3.517,13.356-10.062-2.515-5.32-8.437-5.565-14.536-4.3a61.57,61.57,0,0,0-6.945,1.914l.156-.134a153.6,153.6,0,0,1,26.712-16.74,38.311,38.311,0,0,0,12.421,10.551c9.038,4.652,16.717-.868,14.714-7.813-1.625-5.654-7.435-6.834-13.646-6.678a66.169,66.169,0,0,0-7.279.8c10.039-4.741,20.279-9.216,30.163-14.447h.223a37.842,37.842,0,0,0,15.337,8.014c9.861,2.449,16.05-4.719,12.488-11.13-2.894-5.12-8.9-4.9-14.8-3.206-1.67.49-3.339,1.091-4.964,1.714a221.056,221.056,0,0,0,19.166-12.51l.512.556v-.289a38.643,38.643,0,0,0,15.471,8.125c9.839,2.426,16.05-4.719,12.488-11.13C296.724,293.989,290.8,294.189,284.815,295.9ZM129.171,497.6c-2.026-2.36-3.94-4.831-5.81-7.324.445-.4.935-.846,1.425-1.336a34.994,34.994,0,0,0,8.57,1.536v.468l1.358-.289c.712,3.517,1.447,7.012,2.226,10.507A9.1,9.1,0,0,0,129.171,497.6Zm7.257-83.81c-.69,2.627-1.269,5.253-1.825,7.9l-.334-.467q0-8.147.245-16.25c.156-3.784.423-7.546.757-11.33a39.213,39.213,0,0,0,6.01,5.009,145.818,145.818,0,0,0-4.83,15.137Zm9.127-24.931c.134-.979.245-1.981.289-2.961V384.41c.8-.245,1.625-.534,2.426-.868-.89,1.759-1.825,3.539-2.693,5.32Zm11.6-18.81a7.1,7.1,0,0,0-4.074-3.829c-5.5-2.226-9.95,1.781-13.49,6.9l-.178.245h-.356a6.689,6.689,0,0,0-1.135-.156,1.847,1.847,0,0,1,.156-.913,198.9,198.9,0,0,1,5.7-23.8,37.843,37.843,0,0,0,15.248-1.18A12.978,12.978,0,0,0,166.5,342a34.369,34.369,0,0,0,5.5,12.488,102.157,102.157,0,0,0-14.825,15.582Z" transform="translate(-45.34 -169.51)" fill="#fff" opacity="0.3" style="isolation: isolate"/>
        <path id="Pfad_456" data-name="Pfad 456" d="M426.648,455.675s-10.774-24.063-13.356-26.534-23.217-9.95-28.938-28.938-16.584-69.674,10.8-66.358,20.724,56.407,30.675,54.738-8.281-86.236,9.127-97.945,45.611-.824,42.294,43.964-9.95,70.476-4.14,68,22.394-11.62,22.394,7.457-15.76,32.344-24.887,33.168-13.356,1.669-13.356,1.669v12.421Z" transform="translate(361.697 -26.364)" fill="#2e353a" stroke="#2e353a" stroke-linecap="round" stroke-linejoin="round" stroke-width="1"/>
        <path id="Pfad_457" data-name="Pfad 457" d="M408.693,372.818c-6.255-5.921-12-11.664-14.647-16.94-5.253-10.529-9.216-40.068-9.216-40.068" transform="translate(370.881 9.857)" fill="none" stroke="#fff" stroke-linecap="round" stroke-linejoin="round" stroke-width="0.5"/>
        <path id="Pfad_458" data-name="Pfad 458" d="M380.64,322.29c4.14,17.252,4.719,30.252,17.229,45.388,6.678,8.192,24.353,15.137,26.334,22.372a262.759,262.759,0,0,1,3.985,26.334l9.883.668s2-17.14-3.651-29.361" transform="translate(365.744 17.802)" fill="none" stroke="#fff" stroke-linecap="round" stroke-linejoin="round" stroke-width="0.5"/>
        <path id="Pfad_459" data-name="Pfad 459" d="M384.815,309.86s-7.39,5.676-4.764,19.656" transform="translate(364.33 2.562)" fill="none" stroke="#fff" stroke-linecap="round" stroke-linejoin="round" stroke-width="0.5"/>
        <line id="Linie_28" data-name="Linie 28" x1="3.918" y2="6.344" transform="translate(792.574 363.331)" fill="none" stroke="#fff" stroke-linecap="round" stroke-linejoin="round" stroke-width="0.5"/>
        <line id="Linie_29" data-name="Linie 29" x1="1.358" y2="2.204" transform="translate(796.492 361.127)" fill="none" stroke="#fff" stroke-linecap="round" stroke-linejoin="round" stroke-width="0.5"/>
        <path id="Pfad_460" data-name="Pfad 460" d="M418.007,289.162s-15.137-.646-15.137,13.824c0,12.221,3.74,53.937,2.938,73.013" transform="translate(392.999 -22.819)" fill="none" stroke="#fff" stroke-linecap="round" stroke-linejoin="round" stroke-width="0.5"/>
        <path id="Pfad_461" data-name="Pfad 461" d="M419.316,348.6c-.356,4.964-.579,8.481-.579,9.817,0,7.235,18.409-20.413,26.979-21.058,0,0,8.548-.668,5.253,15.137a32.9,32.9,0,0,1-23.017,25c-7.257,1.981-13.178-1.313-14.491,1.981a60.948,60.948,0,0,0-1.981,11.842" transform="translate(403.555 36.275)" fill="none" stroke="#fff" stroke-linecap="round" stroke-linejoin="round" stroke-width="0.5"/>
        <path id="Pfad_462" data-name="Pfad 462" d="M418.745,295.33a58.461,58.461,0,0,1,1.6,14.58c0,15.4-2.938,51.733-4.9,76.264" transform="translate(408.422 -15.252)" fill="none" stroke="#fff" stroke-linecap="round" stroke-linejoin="round" stroke-width="0.5"/>
        <path id="Pfad_463" data-name="Pfad 463" d="M413.51,289.76a11.664,11.664,0,0,1,4.608,4.853" transform="translate(406.044 -22.081)" fill="none" stroke="#fff" stroke-linecap="round" stroke-linejoin="round" stroke-width="0.5"/>
        <line id="Linie_30" data-name="Linie 30" x1="0.467" y2="9.216" transform="translate(808.379 380.872)" fill="none" stroke="#fff" stroke-linecap="round" stroke-linejoin="round" stroke-width="0.5"/>
        <path id="Pfad_464" data-name="Pfad 464" d="M411.989,293.3s-3.94,1.313-2.627,15.137c1.091,11.42,0,63.264-.512,80.96" transform="translate(400.33 -17.741)" fill="none" stroke="#fff" stroke-linecap="round" stroke-linejoin="round" stroke-width="0.5"/>
        <path id="Pfad_465" data-name="Pfad 465" d="M453.545,339.13a53.247,53.247,0,0,1-25.666,23.707c-17.808,7.235-18.431,3.94-18.431,11.13s-.668,20.413-.668,20.413" transform="translate(400.245 38.448)" fill="none" stroke="#fff" stroke-linecap="round" stroke-linejoin="round" stroke-width="0.5"/>
        <path id="Pfad_466" data-name="Pfad 466" d="M456.26,451.86H398.74l-12.31-83.32h82.14Z" transform="translate(372.843 74.505)" fill="#78bc8b" stroke="#2e353a" stroke-linecap="round" stroke-linejoin="round" stroke-width="1"/>
        <rect id="Rechteck_29" data-name="Rechteck 29" width="96.253" height="22.305" transform="translate(752.216 429.912)" stroke-width="1" stroke="#2e353a" stroke-linecap="round" stroke-linejoin="round" fill="#78bc8b"/>
      </g>
      <g id="freepik--Device--inject-276" transform="translate(224.312 283.929)">
        <path id="Pfad_467" data-name="Pfad 467" d="M360.295,405.683V360.45H227.09v45.233a65.512,65.512,0,0,1-14.158,40.58l-5.832,7.346H380.285l-5.832-7.346a65.512,65.512,0,0,1-14.157-40.581Z" transform="translate(-25.991 26.833)" fill="#fff" stroke="#2e353a" stroke-linecap="round" stroke-linejoin="round" stroke-width="1"/>
        <path id="Pfad_468" data-name="Pfad 468" d="M212.4,437.359H361.989a65.4,65.4,0,0,1-8.192-31.676V360.45H220.592v45.233a65.385,65.385,0,0,1-8.184,31.662Z" transform="translate(-19.493 26.833)" fill="#a3a3a3"/>
        <rect id="Rechteck_30" data-name="Rechteck 30" width="535.381" height="401.552" rx="8.48" fill="#2e353a" stroke="#2e353a" stroke-linecap="round" stroke-linejoin="round" stroke-width="1"/>
        <path id="Pfad_469" data-name="Pfad 469" d="M125.74,338.82h535.4v43.519a18.877,18.877,0,0,1-18.877,18.877H144.639a18.877,18.877,0,0,1-18.877-18.877h0V338.82Z" transform="translate(-125.74 0.315)" fill="#fff" stroke="#2e353a" stroke-linecap="round" stroke-linejoin="round" stroke-width="1"/>
        <rect id="Rechteck_31" data-name="Rechteck 31" width="481.533" height="283.684" transform="translate(26.935 24.998)" stroke-width="1" stroke="#2e353a" stroke-linecap="round" stroke-linejoin="round" fill="#fff"/>
        <path id="Pfad_470" data-name="Pfad 470" d="M261.327,358.284a9.884,9.884,0,1,0-9.883,9.884,9.883,9.883,0,0,0,9.883-9.884Z" transform="translate(16.258 12.06)" fill="#2e353a" stroke="#2e353a" stroke-linecap="round" stroke-linejoin="round" stroke-width="1"/>
        <rect id="Rechteck_32" data-name="Rechteck 32" width="173.207" height="8.08" transform="translate(181.109 480.531)" stroke-width="1" stroke="#2e353a" stroke-linecap="round" stroke-linejoin="round" fill="#fff"/>
        <rect id="Rechteck_33" data-name="Rechteck 33" width="473.23" height="24.865" transform="translate(30.719 44.988)" stroke-width="1" stroke="#2e353a" stroke-linecap="round" stroke-linejoin="round" fill="#fff"/>
        <path id="Pfad_471" data-name="Pfad 471" d="M217.629,226.31l-5.676-15.36H139.54v242.1H612.77V226.31Z" transform="translate(-108.821 -156.457)" fill="#78bc8b" stroke="#2e353a" stroke-linecap="round" stroke-linejoin="round" stroke-width="1"/>
        <line id="Linie_31" data-name="Linie 31" x2="221.89" transform="translate(158.092 182.289)" fill="none" stroke="#2e353a" stroke-linecap="round" stroke-linejoin="round" stroke-width="2"/>
        <line id="Linie_32" data-name="Linie 32" x2="221.89" transform="translate(158.092 204.104)" fill="none" stroke="#2e353a" stroke-linecap="round" stroke-linejoin="round" stroke-width="2"/>
        <line id="Linie_33" data-name="Linie 33" x2="221.89" transform="translate(158.092 225.919)" fill="none" stroke="#2e353a" stroke-linecap="round" stroke-linejoin="round" stroke-width="2"/>
        <line id="Linie_34" data-name="Linie 34" x2="221.89" transform="translate(158.092 247.756)" fill="none" stroke="#2e353a" stroke-linecap="round" stroke-linejoin="round" stroke-width="2"/>
        <path id="Pfad_472" data-name="Pfad 472" d="M410.609,259.59H209.533a15.76,15.76,0,0,1-15.783-15.738h0a15.76,15.76,0,0,1,15.738-15.782H410.609a15.76,15.76,0,0,1,15.783,15.782h0a15.76,15.76,0,0,1-15.782,15.738Z" transform="translate(-42.358 -135.467)" fill="#fff" stroke="#2e353a" stroke-linecap="round" stroke-linejoin="round" stroke-width="1"/>
        <path id="Pfad_473" data-name="Pfad 473" d="M306.3,259.615H278.83V228.05H306.3a15.76,15.76,0,0,1,15.783,15.782h0A15.76,15.76,0,0,1,306.3,259.615Z" transform="translate(61.952 -135.492)" fill="#2e353a" stroke="#2e353a" stroke-linecap="round" stroke-linejoin="round" stroke-width="1"/>
      </g>
      <g id="freepik--search-engines--inject-276" transform="translate(84.028 430.438)">
        <path id="Pfad_505" data-name="Pfad 505" d="M287.941,411.859a12.911,12.911,0,0,1-7.146,7.168c-2.515,1.046-5.854.8-9.75,2.983-8.726,4.92-30.563.557-46.413,2.226s-37.13-15.827-37.13-15.827l-62.863,3.45V349.53s65.534,2.738,79.736-2.716,30.029-16.94,37.13-16.383,65.534,7.1,65.534,7.1Z" transform="translate(13.195 -156.503)" fill="#ddb59c" stroke="#2e353a" stroke-linecap="round" stroke-linejoin="round" stroke-width="1"/>
        <path id="Pfad_506" data-name="Pfad 506" d="M245.577,254.372a65.957,65.957,0,1,1-72.813,58.3h0a65.935,65.935,0,0,1,72.791-58.277ZM232.488,372.529a52.935,52.935,0,1,0-46.746-58.478h0a52.957,52.957,0,0,0,46.746,58.478Z" transform="translate(71.698 -250.201)" fill="#868686" stroke="#2e353a" stroke-linecap="round" stroke-linejoin="round" stroke-width="1"/>
        <path id="Pfad_507" data-name="Pfad 507" d="M245.757,252.7a65.935,65.935,0,1,1-72.813,58.277A65.935,65.935,0,0,1,245.757,252.7ZM232.668,370.852a52.935,52.935,0,1,0-46.746-58.478h0a52.935,52.935,0,0,0,46.746,58.433Z" transform="translate(71.919 -252.286)" fill="#d1d1d1" stroke="#2e353a" stroke-linecap="round" stroke-linejoin="round" stroke-width="1"/>
        <rect id="Rechteck_36" data-name="Rechteck 36" width="58.812" height="15.961" rx="2.88" transform="translate(288.126 190.497) rotate(-83.68)" stroke-width="1" stroke="#2e353a" stroke-linecap="round" stroke-linejoin="round" fill="#868686"/>
        <path id="Pfad_508" data-name="Pfad 508" d="M198.4,444.4h-.445a14.024,14.024,0,0,1-12.4-15.582l9.995-90.376a10.952,10.952,0,0,1,12.11-9.705l6.678.735a10.974,10.974,0,0,1,9.705,12.11l-9.995,90.488a14.068,14.068,0,0,1-15.582,12.4Z" transform="translate(87.758 -158.639)" fill="#2e353a" stroke="#2e353a" stroke-linecap="round" stroke-linejoin="round" stroke-width="1"/>
        <path id="Pfad_509" data-name="Pfad 509" d="M205.4,362.89s15.8.6,18.031,3.317,1.825,12.265-2.471,13.356c-10.93,2.894-34.236,1.2-35.127-.757s-2.8-13.356,2.026-14.58A115.759,115.759,0,0,1,205.4,362.89Z" transform="translate(86.832 -116.684)" fill="#f5c7aa" stroke="#2e353a" stroke-linecap="round" stroke-linejoin="round" stroke-width="1"/>
        <path id="Pfad_510" data-name="Pfad 510" d="M208.99,353.035s18.409-.712,21.281,2.6,3.45,15.716-1.425,17.586c-12.377,4.741-40.224,2.894-41.471.445s-4.029-15.159,1.425-17.207S208.99,353.035,208.99,353.035Z" transform="translate(87.872 -128.845)" fill="#f5c7aa" stroke="#2e353a" stroke-linecap="round" stroke-linejoin="round" stroke-width="1"/>
        <path id="Pfad_511" data-name="Pfad 511" d="M210.947,341.8s19.678-.735,22.75,2.8,3.673,16.806-1.514,18.788c-13.356,5.1-42.294,5.075-43.652,2.471s-5.009-18.187.824-20.39S210.947,341.8,210.947,341.8Z" transform="translate(88.609 -142.612)" fill="#f5c7aa" stroke="#2e353a" stroke-linecap="round" stroke-linejoin="round" stroke-width="1"/>
        <path id="Pfad_512" data-name="Pfad 512" d="M216.041,331.337s19.678-.757,22.75,2.783,3.807,17.207-1.536,18.81-42.294,5.053-43.652,2.449-4.986-18.187.846-20.368S216.041,331.337,216.041,331.337Z" transform="translate(94.845 -155.451)" fill="#f5c7aa" stroke="#2e353a" stroke-linecap="round" stroke-linejoin="round" stroke-width="1"/>
        <path id="Pfad_513" data-name="Pfad 513" d="M168,402.123a37.331,37.331,0,0,0,21.926-6.077c15.849-10.93,15.293-36.039,15.293-36.039l3.829-1.091A33.1,33.1,0,0,0,217.774,354a79.064,79.064,0,0,0-2.226,15.827,11.865,11.865,0,0,0,10.93,11.486c4.92.534,7.1,1.091,8.748-5.476s9.817-32.767,10.373-36.573-5.342-9.683-14.625-11.13c-14.269,1.18-28.36,5.164-42.717,5.164a29.115,29.115,0,0,0-13.935,5.1" transform="translate(66.356 -159.3)" fill="#ddb59c" stroke="#2e353a" stroke-linecap="round" stroke-linejoin="round" stroke-width="1"/>
        <path id="Pfad_514" data-name="Pfad 514" d="M161.44,360.36a49.783,49.783,0,0,0,9.55,1.937" transform="translate(58.313 -119.786)" fill="#fff" stroke="#2e353a" stroke-linecap="round" stroke-linejoin="round" stroke-width="1"/>
        <line id="Linie_39" data-name="Linie 39" x1="19.656" transform="translate(180.419 233.473)" fill="none" stroke="#2e353a" stroke-linecap="round" stroke-linejoin="round" stroke-width="1"/>
        <line id="Linie_40" data-name="Linie 40" x1="8.192" transform="translate(190.258 238.927)" fill="none" stroke="#2e353a" stroke-linecap="round" stroke-linejoin="round" stroke-width="1"/>
        <path id="Pfad_515" data-name="Pfad 515" d="M194.646,346.018s-10.863,0-17.986-6.478" transform="translate(76.973 -145.311)" fill="none" stroke="#2e353a" stroke-linecap="round" stroke-linejoin="round" stroke-width="1"/>
        <path id="Pfad_516" data-name="Pfad 516" d="M190.5,344.236a43.139,43.139,0,0,1,1.825-8.726" transform="translate(93.941 -150.252)" fill="none" stroke="#2e353a" stroke-linecap="round" stroke-linejoin="round" stroke-width="1"/>
        <path id="Pfad_517" data-name="Pfad 517" d="M205.894,354.589s2.07-5.743-.467-7.813-9.193-5.053-10.329-2.76-3.673,12.889-2.983,14.937l.69,2.07" transform="translate(95.777 -140.839)" fill="#ddb59c" stroke="#2e353a" stroke-linecap="round" stroke-linejoin="round" stroke-width="0.5"/>
        <path id="Pfad_518" data-name="Pfad 518" d="M62.72,430.576H250.93V338.04H62.72" transform="translate(-62.72 -147.15)" fill="#78bc8b" stroke="#2e353a" stroke-linecap="round" stroke-linejoin="round" stroke-width="1"/>
        <path id="Pfad_519" data-name="Pfad 519" d="M139.17,377.249a4.229,4.229,0,1,0,4.229-4.229h0A4.229,4.229,0,0,0,139.17,377.249Z" transform="translate(31.009 -104.264)" fill="#fff" stroke="#2e353a" stroke-linecap="round" stroke-linejoin="round" stroke-width="1"/>
      </g>
    </g>
  </g>
</svg>
