<svg xmlns="http://www.w3.org/2000/svg" xmlns:xlink="http://www.w3.org/1999/xlink" width="1000" height="1000" viewBox="0 0 1000 1000">
  <defs>
    <clipPath id="clip-globe">
      <rect width="1000" height="1000"/>
    </clipPath>
  </defs>
  <g id="globe" clip-path="url(#clip-globe)">
    <g id="Destination-bro" transform="translate(-68.874 -51.507)">
      <g id="background-simple--inject-1--inject-383" transform="translate(120.418 155.33)">
        <path id="Pfad_1" data-name="Pfad 1" d="M702.45,122.7q-20.124-8.617-40.731-15.869c-95.672-33.4-210.049-14.4-293.892,40.891-44.343,29.25-75.226,68.4-98.241,115.957C246.2,312.038,229.926,364.2,196.448,407.014c-32.756,41.935-78.651,75.092-97.117,126.715C59.19,646.5,127.859,800.485,256.474,811.162c90.747,7.547,124.36,59.035,219.442,85.021s188.854,22.908,297.478-54.7c43.862-31.311,82.291-72.577,99.017-124.734,15.067-46.939,1.151-95.966,3.265-143.9,2.676-59.142,43.969-103.459,66.074-155.7,32.809-77.474-13.033-145.608-73.031-193.725A727.212,727.212,0,0,0,702.45,122.7Z" transform="translate(-87.897 -90.303)" fill="#92e3a9"/>
        <path id="Pfad_2" data-name="Pfad 2" d="M702.45,122.7q-20.124-8.617-40.731-15.869c-95.672-33.4-210.049-14.4-293.892,40.891-44.343,29.25-75.226,68.4-98.241,115.957C246.2,312.038,229.926,364.2,196.448,407.014c-32.756,41.935-78.651,75.092-97.117,126.715C59.19,646.5,127.859,800.485,256.474,811.162c90.747,7.547,124.36,59.035,219.442,85.021s188.854,22.908,297.478-54.7c43.862-31.311,82.291-72.577,99.017-124.734,15.067-46.939,1.151-95.966,3.265-143.9,2.676-59.142,43.969-103.459,66.074-155.7,32.809-77.474-13.033-145.608-73.031-193.725A727.212,727.212,0,0,0,702.45,122.7Z" transform="translate(-87.897 -90.303)" fill="#fff" opacity="0.7"/>
      </g>
      <g id="Shadow--inject-1--inject-383" transform="translate(408.644 943.12)">
        <ellipse id="Ellipse_1" data-name="Ellipse 1" cx="159.684" cy="33.05" rx="159.684" ry="33.05" transform="translate(0)" fill="#263238"/>
      </g>
      <g id="Globe--inject-1--inject-383" transform="translate(68.495 51.507)">
        <path id="Pfad_29" data-name="Pfad 29" d="M353.436,0c195.2,0,353.436,158.239,353.436,353.436S548.633,706.872,353.436,706.872,0,548.633,0,353.436,158.239,0,353.436,0Z" transform="translate(0 499.836) rotate(-45)" fill="#90cccb" stroke="#263238" stroke-width="1"/>
        <path id="Pfad_3" data-name="Pfad 3" d="M476.653,565.983c-187.908,0-342.975-147.04-352.954-334.693-.322,6.2-.509,12.46-.509,18.723-.013,195.212,158.237,353.463,353.449,353.463S830.1,445.225,830.1,250.013q-.02-9.447-.495-18.733c-9.974,187.653-165.036,334.7-352.954,334.7Z" transform="translate(23.18 249.815)" fill="#263238" stroke="#263238" stroke-miterlimit="10" stroke-width="1"/>
        <path id="Pfad_4" data-name="Pfad 4" d="M248.01,182.2l10.062,13.407,22.667,8.4,5.031,17.609-14.264,5.861v3.372l25.156,10.062L308.41,238.4l5.861-9.233-1.659-15.95-15.12-5.861-9.206-15.093-33.559-15.12Z" transform="translate(232.394 159.069)" fill="#f7f6f1" stroke="#263238" stroke-miterlimit="10" stroke-width="1"/>
        <path id="Pfad_5" data-name="Pfad 5" d="M582.739,599.466l-26.761-10.892-32.729-11.748H497.264l-24.326-5.031-26.761,5.861-15.12.856H421.85l-17.636,10.062-16.779,6.69L364.608,580.92l5.861-23.5-14.237-5.888H339.453l-2.516-7.547L338.6,528.9l-5.861-8.376-11.748,1.659-3.345,8.4-14.264.83L290.8,516.319l-5.031-20.124,12.578-23.5,24.326,1.686,6.717,5.861h10.062L352.03,472.7l10.892,3.345,15.067,26.012,5.861-.83-1.686-19.295-5.031-10.062,1.686-16.057,31.043-13.381,4.175-31.016L427.417,400.5,438.335,381.2l8.376-1.659,19.295-12.6.83-6.69-13.381.83-2.516-6.717h-9.233l-14.264,3.372,6.717-10.919,29.437-8.376,6.717-7.573,11.721,18.465,7.573,7.547,11.721-3.345-5-10.972L478.718,329.98l-20.124-22.64-20.981-14.264-20.124-3.345-10.062-9.982L394.046,276.4l-1.686,3.345L390.7,304.075l3.345,8.4L386.5,339.239,369.72,325.859l2.516-11.721-17.609-8.4-7.547-9.233,4.148-20.847,24.326-17.636,1.659-20.124-9.233.83-5.861-7.547L359.6,218.6l-5.861-.83-3.372,13.381-9.233,1.686L336.964,203.4l-6.717-4.2L318.5,194.167l-13.381,6.717L321.87,216.94l3.372,14.264-30.213-22.747-20.954-22.64-1.686-22.667-21.81-6.69L233.8,167.352a130.106,130.106,0,0,1-12.578,6.717c-4.2,1.686-20.124,3.345-20.124,3.345l-3.372,14.264-19.295.83,1.686,9.233,31.043,5.031,15.923,17.636v29.437l-9.206,25.985,1.659,27.7-23.523,41.025-5.031,61.23,7.707,35.245,10.892,26.761,12.578,1.659-4.175-13.381L211.266,450l-4.2-18.465,7.547-1.686,11.748,30.213,8.376,26.761v21.81l16.057,19.295,28.18,21.088,43.621,11.748,13.381,12.578,10.062,13.381,15.12,9.233,18.438,5.031,18.465-.856s-.83,8.4-.83,12.6-11.748,18.439-11.748,18.439l-9.233,16.779,6.717,18.465,18.438,7.547,26.012,26.761,11.748,5.031V718.34l1.472,5.861a351.937,351.937,0,0,0,175.929-82.96l.428-6.075L639.66,594.06l-10.919-7.547Z" transform="translate(115.769 124.407)" fill="#f7f6f1" stroke="#263238" stroke-miterlimit="10" stroke-width="1"/>
        <path id="Pfad_6" data-name="Pfad 6" d="M645.292,352.3l-9.233-16.057-11.748-18.465-3.345-25.156,15.093,2.516.83-8.376L626,285.9l9.233-4.175,10.062-5.887v-8.376l-10.062-13.381-2.168-18.037a353.6,353.6,0,0,0-414.8-100.515l19.348,13.7-11.748,15.093-16.057,3.345-1.659,22.667-6.717,2.516-8.269,9.179.83,15.093,14.264,1.686-5.887,14.237H216.63L240.9,202.035l2.516-13.381,23.5-1.686,5.861-10.062L297.1,174.39l2.516-14.264,17.636-.83s12.578-6.717,15.093-6.717a102.287,102.287,0,0,1,14.264,4.2l12.578,10.062H376.8l15.12-9.233,19.268,1.686a20.9,20.9,0,0,0,9.233,3.345c4.2,0,16.779-5.861,16.779-5.861l24.326,15.093,10.062,7.547v12.6l12.6,1.659,4.175-7.547,10.919,5.031-.856,6.717L473.27,204.6l14.264,18.439,30.187,16.779,12.6,16.779,18.439,1.686,4.2-8.4,6.717-1.659-21.73-16.753-13.381-1.686,10.919-3.345L525.4,212.177l14.264-.856L558.13,221.41l4.2,20.125,9.233,10.892,7.547,24.326,18.438,13.381V317.8l19.295,12.6-.83,9.206L613.5,350.533l5.031,15.093,1.686,7.547,14.237,2.516,6.717-14.264Z" transform="translate(140.459 40.135)" fill="#f7f6f1" stroke="#263238" stroke-miterlimit="10" stroke-width="1"/>
        <path id="Pfad_7" data-name="Pfad 7" d="M375.65,166.57v4.817l-4.175,13.381,2.516,11.748,9.206,3.318v16.057l-10.089-4.2L370.592,257,360.53,275.462l6.717,23.47,10.892,10.062v45.253l10.919,35.245,11.748,26.761,19.295,5.031,6.717-16.779,2.676-2.141a360.775,360.775,0,0,0,2.676-43.942A351.588,351.588,0,0,0,375.65,166.57Z" transform="translate(420.992 141.353)" fill="#f7f6f1" stroke="#263238" stroke-miterlimit="10" stroke-width="1"/>
        <path id="Pfad_8" data-name="Pfad 8" d="M366.289,179.863,310.92,155.51l-24.326.856-5.888,15.923L270.645,161.4l-18.439,4.2L250.52,193.27l15.093,10.919,10.919-15.95,12.578,12.578,25.985,22.667,5.058,24.326,21.81,27.671,35.218-5.861-.83-12.6L368.8,242.778l-1.686-33.559,8.376-14.264Z" transform="translate(236.601 122.815)" fill="#f7f6f1" stroke="#263238" stroke-miterlimit="10" stroke-width="1"/>
        <path id="Pfad_9" data-name="Pfad 9" d="M325.4,173.6l-12.578-3.345-10.892,9.233,5.861,24.326h10.892Z" transform="translate(322.771 147.521)" fill="#f7f6f1" stroke="#263238" stroke-miterlimit="10" stroke-width="1"/>
        <path id="Pfad_10" data-name="Pfad 10" d="M365.6,193.232l-28.5-15.12-5.888-10.062-6.717,2.516,5.888,16.779,5.031,21.81,12.578,5.031,2.516-3.345-7.547-12.578,21.81,8.376Z" transform="translate(360.584 143.833)" fill="#f7f6f1" stroke="#263238" stroke-miterlimit="10" stroke-width="1"/>
        <path id="Pfad_11" data-name="Pfad 11" d="M250.415,290.62l-3.345,3.345,25.156,7.547,10.089,11.748,15.923,1.686,5.888-9.233-19.295-3.372Z" transform="translate(230.819 349.276)" fill="#f7f6f1" stroke="#263238" stroke-miterlimit="10" stroke-width="1"/>
        <path id="Pfad_12" data-name="Pfad 12" d="M287.249,296.57,269.64,301.6l2.516,6.717h21.811l4.2-6.717-7.547.856Z" transform="translate(268.649 359.249)" fill="#f7f6f1" stroke="#263238" stroke-miterlimit="10" stroke-width="1"/>
      </g>
      <g id="airplane-1--inject-1--inject-383" transform="translate(226.587 204.428)">
        <path id="Pfad_13" data-name="Pfad 13" d="M351.16,596.642c-123.477,0-223.59-109.239-223.59-243.982S227.684,108.65,351.16,108.65a204.753,204.753,0,0,1,34.468,2.89" transform="translate(-127.57 -108.65)" fill="none" stroke="#ff5f5f" stroke-miterlimit="10" stroke-width="6" stroke-dasharray="3"/>
      </g>
      <g id="airplane-2--inject-1--inject-383" transform="translate(152.101 361.068)">
        <path id="Pfad_15" data-name="Pfad 15" d="M181.8,472.442a160.193,160.193,0,0,1-67.064-72.255c-37.894-81.461-1.5-178.712,81.327-217.275s180.665-3.773,218.586,77.608q2.676,5.78,4.871,11.641" transform="translate(-99.736 -167.182)" fill="none" stroke="#ff5f5f" stroke-miterlimit="10" stroke-width="6" stroke-dasharray="3"/>
      </g>
      <g id="airplane-5--inject-1--inject-383" transform="translate(455.851 180.664)">
        <path id="Pfad_23" data-name="Pfad 23" d="M213.24,130.947A212.431,212.431,0,0,1,322.961,99.77c146.866,0,265.927,157.089,265.927,350.894,0,111.166-39.179,210.237-100.274,274.544" transform="translate(-213.24 -99.77)" fill="none" stroke="#ff5f5f" stroke-miterlimit="10" stroke-width="6" stroke-dasharray="3"/>
      </g>
      <g id="Locations--inject-1--inject-383" transform="translate(435.191 173.466)">
        <path id="Pfad_25" data-name="Pfad 25" d="M244.151,88.08A20.2,20.2,0,0,0,224,108.285c0,11.159,20.2,36.262,20.2,36.262s20.2-25.1,20.2-36.262a20.2,20.2,0,0,0-20.258-20.2Zm-.268,28.233a8.3,8.3,0,1,1,8.3-8.3,8.3,8.3,0,0,1-8.3,8.3Z" transform="translate(-212.011 -88.08)" fill="#263238"/>
        <path id="Pfad_27" data-name="Pfad 27" d="M296.425,338.47a20.2,20.2,0,0,0-20.2,20.2c0,11.159,20.2,36.261,20.2,36.261s20.2-25.1,20.2-36.261A20.2,20.2,0,0,0,296.425,338.47Zm-.294,28.18a8.3,8.3,0,1,1,5.883-2.42A8.3,8.3,0,0,1,296.13,366.65Z" transform="translate(-4.058 256.674)" fill="#263238"/>
        <path id="Pfad_28" data-name="Pfad 28" d="M242.725,246.64a20.2,20.2,0,0,0-20.2,20.2c0,11.159,20.2,36.235,20.2,36.235s20.2-25.075,20.2-36.235a20.2,20.2,0,0,0-20.2-20.2Zm-.187,28.233a8.3,8.3,0,1,1,5.893-2.43A8.323,8.323,0,0,1,242.537,274.873Z" transform="translate(-222.52 223.181)" fill="#263238"/>
        <path id="Pfad_30" data-name="Pfad 30" d="M296.425,338.47a20.2,20.2,0,0,0-20.2,20.2c0,11.159,20.2,36.261,20.2,36.261s20.2-25.1,20.2-36.261A20.2,20.2,0,0,0,296.425,338.47Zm-.294,28.18a8.3,8.3,0,1,1,5.883-2.42A8.3,8.3,0,0,1,296.13,366.65Z" transform="translate(-255.614 -91.223)" fill="#263238"/>
      </g>
    </g>
  </g>
</svg>
