<svg xmlns="http://www.w3.org/2000/svg" xmlns:xlink="http://www.w3.org/1999/xlink" width="1000" height="1000" viewBox="0 0 1000 1000">
  <defs>
    <clipPath id="clip-path">
      <path id="Pfad_238" data-name="Pfad 238" d="M288.752,236.973s23.127,49.358,23.127,51.964-20.521,13.767-24.43,16.113a94.944,94.944,0,0,1-9.359,4.669l2.345,22.866s35.33-8.056,50.14-16.113,14.289-17.155,10.858-30.662-26.254-65.71-26.254-65.71Z" transform="translate(-278.09 -220.1)" fill="#ddb59c" stroke="#263238" stroke-linecap="round" stroke-linejoin="round" stroke-width="1"/>
    </clipPath>
    <clipPath id="clip-path-2">
      <path id="Pfad_242" data-name="Pfad 242" d="M215.535,222.85s-16.873,61.823-17.372,72.746,33.506,32.464,34.744,33.767-1.933-37.567-1.933-37.567l11.531-56.459Z" transform="translate(-198.158 -222.85)" fill="#fff" stroke="#263238" stroke-linecap="round" stroke-linejoin="round" stroke-width="1"/>
    </clipPath>
    <clipPath id="clip-path-3">
      <path id="Pfad_261" data-name="Pfad 261" d="M231.73,206.679s6.753,23.887,19.544,37.936,17.372,17.372,24.169,16.351,14.028-9.859,24.147-28.23,10.858-32.464,11.7-33.767-2.172-27.274-16.634-38.457-30.662-16.091-44.69-3.887S227.04,188.742,231.73,206.679Z" transform="translate(-230.469 -149.497)" fill="#ddb59c" stroke="#263238" stroke-linecap="round" stroke-linejoin="round" stroke-width="1"/>
    </clipPath>
    <clipPath id="clip-post">
      <rect width="1000" height="1000"/>
    </clipPath>
  </defs>
  <g id="post" clip-path="url(#clip-post)">
    <g id="Gruppe_34" data-name="Gruppe 34" transform="translate(-1001 -114.082)">
      <g id="Blog_post-bro" data-name="Blog post-bro" transform="translate(1127 194)">
        <g id="freepik--background-simple--inject-1--inject-3" transform="translate(0 85.074)">
          <path id="Pfad_222" data-name="Pfad 222" d="M827.866,358.175c3.322-89.944-28.99-180.974-100.215-224.3-35.157-21.389-76.263-33.919-117.392-32.073-44.125,1.976-85.666,19.934-127.272,34.744S396.322,163.2,353.435,152.685c-31.031-7.6-58.327-26.384-89.032-34.94C143.428,84.065,38.088,221.327,97.283,330.445,111.811,357.2,134.2,378.652,153.026,402.6S187.64,455.48,185.1,485.816c-2.172,25.124-16.417,47.491-22.345,71.986-11.335,46.926,11.162,98.543,50.053,127.142s91.355,35.265,138.26,23.5,88.163-40.564,120.671-76.22c17.372-19.109,34.4-41.432,59.391-47.925,24-6.21,48.729,3.909,73.071,8.556a168.27,168.27,0,0,0,129.791-29.532C792.731,519.866,824.87,439.455,827.866,358.175Z" transform="translate(-80.317 -101.627)" fill="#92e3a9"/>
          <path id="Pfad_223" data-name="Pfad 223" d="M827.866,358.175c3.322-89.944-28.99-180.974-100.215-224.3-35.157-21.389-76.263-33.919-117.392-32.073-44.125,1.976-85.666,19.934-127.272,34.744S396.322,163.2,353.435,152.685c-31.031-7.6-58.327-26.384-89.032-34.94C143.428,84.065,38.088,221.327,97.283,330.445,111.811,357.2,134.2,378.652,153.026,402.6S187.64,455.48,185.1,485.816c-2.172,25.124-16.417,47.491-22.345,71.986-11.335,46.926,11.162,98.543,50.053,127.142s91.355,35.265,138.26,23.5,88.163-40.564,120.671-76.22c17.372-19.109,34.4-41.432,59.391-47.925,24-6.21,48.729,3.909,73.071,8.556a168.27,168.27,0,0,0,129.791-29.532C792.731,519.866,824.87,439.455,827.866,358.175Z" transform="translate(-80.317 -101.627)" fill="#fff" opacity="0.7"/>
        </g>
        <g id="freepik--Shadow--inject-1--inject-3" transform="translate(67.02 722.396)">
          <ellipse id="Ellipse_43" data-name="Ellipse 43" cx="293.61" cy="58.718" rx="293.61" ry="58.718" fill="#bfbfbf"/>
          <ellipse id="Ellipse_44" data-name="Ellipse 44" cx="293.61" cy="58.718" rx="293.61" ry="58.718" fill="#bfbfbf" opacity="0.5"/>
        </g>
        <g id="freepik--graphics-2--inject-1--inject-3" transform="translate(447.534 0)">
          <rect id="Rechteck_18" data-name="Rechteck 18" width="237.889" height="259.561" rx="6.03" transform="translate(0 0)" stroke-width="1" stroke="#263238" stroke-linecap="round" stroke-linejoin="round" fill="#fff"/>
          <path id="Pfad_224" data-name="Pfad 224" d="M299.5,62.45H511.183a13.029,13.029,0,0,1,13.029,13.029V89.073H286.41V75.544A13.029,13.029,0,0,1,299.5,62.45Z" transform="translate(-286.41 -62.45)" fill="#263238" stroke="#263238" stroke-linecap="round" stroke-linejoin="round" stroke-width="1"/>
          <line id="Linie_1" data-name="Linie 1" x2="95.72" transform="translate(12.964 138.586)" fill="none" stroke="#263238" stroke-linecap="round" stroke-linejoin="round" stroke-width="1"/>
          <line id="Linie_2" data-name="Linie 2" x2="95.72" transform="translate(12.964 150.942)" fill="none" stroke="#263238" stroke-linecap="round" stroke-linejoin="round" stroke-width="1"/>
          <line id="Linie_3" data-name="Linie 3" x2="95.72" transform="translate(12.964 163.298)" fill="none" stroke="#263238" stroke-linecap="round" stroke-linejoin="round" stroke-width="1"/>
          <line id="Linie_4" data-name="Linie 4" x2="95.72" transform="translate(12.964 175.654)" fill="none" stroke="#263238" stroke-linecap="round" stroke-linejoin="round" stroke-width="1"/>
          <line id="Linie_5" data-name="Linie 5" x2="95.72" transform="translate(12.964 188.009)" fill="none" stroke="#263238" stroke-linecap="round" stroke-linejoin="round" stroke-width="1"/>
          <line id="Linie_6" data-name="Linie 6" x2="95.72" transform="translate(12.964 200.387)" fill="none" stroke="#263238" stroke-linecap="round" stroke-linejoin="round" stroke-width="1"/>
          <line id="Linie_7" data-name="Linie 7" x2="95.72" transform="translate(12.964 212.743)" fill="none" stroke="#263238" stroke-linecap="round" stroke-linejoin="round" stroke-width="1"/>
          <line id="Linie_8" data-name="Linie 8" x2="95.72" transform="translate(12.964 225.099)" fill="none" stroke="#263238" stroke-linecap="round" stroke-linejoin="round" stroke-width="1"/>
          <line id="Linie_9" data-name="Linie 9" x2="95.72" transform="translate(12.964 237.455)" fill="none" stroke="#263238" stroke-linecap="round" stroke-linejoin="round" stroke-width="1"/>
          <line id="Linie_10" data-name="Linie 10" x2="95.72" transform="translate(125.513 138.586)" fill="none" stroke="#263238" stroke-linecap="round" stroke-linejoin="round" stroke-width="1"/>
          <line id="Linie_11" data-name="Linie 11" x2="95.72" transform="translate(125.513 150.942)" fill="none" stroke="#263238" stroke-linecap="round" stroke-linejoin="round" stroke-width="1"/>
          <line id="Linie_12" data-name="Linie 12" x2="95.72" transform="translate(125.513 163.298)" fill="none" stroke="#263238" stroke-linecap="round" stroke-linejoin="round" stroke-width="1"/>
          <line id="Linie_13" data-name="Linie 13" x2="95.72" transform="translate(125.513 175.654)" fill="none" stroke="#263238" stroke-linecap="round" stroke-linejoin="round" stroke-width="1"/>
          <line id="Linie_14" data-name="Linie 14" x2="95.72" transform="translate(125.513 188.009)" fill="none" stroke="#263238" stroke-linecap="round" stroke-linejoin="round" stroke-width="1"/>
          <line id="Linie_15" data-name="Linie 15" x2="95.72" transform="translate(125.513 200.387)" fill="none" stroke="#263238" stroke-linecap="round" stroke-linejoin="round" stroke-width="1"/>
          <line id="Linie_16" data-name="Linie 16" x2="95.72" transform="translate(125.513 212.743)" fill="none" stroke="#263238" stroke-linecap="round" stroke-linejoin="round" stroke-width="1"/>
          <line id="Linie_17" data-name="Linie 17" x2="95.72" transform="translate(125.513 225.099)" fill="none" stroke="#263238" stroke-linecap="round" stroke-linejoin="round" stroke-width="1"/>
          <line id="Linie_18" data-name="Linie 18" x2="95.72" transform="translate(125.513 237.455)" fill="none" stroke="#263238" stroke-linecap="round" stroke-linejoin="round" stroke-width="1"/>
          <path id="Pfad_225" data-name="Pfad 225" d="M357.544,96.613a15.376,15.376,0,0,0,.738-4.538c0-5.624-5.711-5.95-11.314-5.95h-1.411V84.8h24.451v1.325c-6.362,0-8.686,4.061-10.662,10.076l-13.029,38.892c-.977,2.888-1.8,5.038-4.864,5.038h-.261l-11.466-37.155-10.662,32.2c-1,2.888-1.824,5.038-4.886,5.038h-.239L297.263,86.125H291.4V84.8h21.455v1.325h-6.1L319.13,128.73h.5l9.337-28.295-4.343-14.2h-5.863V84.8h21.476v1.325h-6.1l12.378,42.605h.478Z" transform="translate(-280.564 -36.267)" fill="#337747"/>
          <rect id="Rechteck_19" data-name="Rechteck 19" width="98.5" height="89.032" transform="translate(123.407 36.221)" stroke-width="2" stroke="#263238" stroke-linecap="round" stroke-linejoin="round" fill="#92e3a9"/>
          <path id="Pfad_226" data-name="Pfad 226" d="M441.763,96.27a60.806,60.806,0,0,0-9.815,1.368c-14.962,3.257-18.87,24.733-35.786,24.733-14.983,0-16.265-20.173-37.741-22.779a23.713,23.713,0,0,0-15.2,2.693v45.8h98.543Z" transform="translate(-219.856 -22.829)" fill="#263238" stroke="#263238" stroke-linecap="round" stroke-linejoin="round" stroke-width="1"/>
          <path id="Pfad_227" data-name="Pfad 227" d="M370.26,94.473A11.075,11.075,0,1,1,359.207,83.42,11.075,11.075,0,0,1,370.26,94.473Z" transform="translate(-214.128 -37.883)" fill="#fff" stroke="#263238" stroke-linecap="round" stroke-linejoin="round" stroke-width="1"/>
          <rect id="Rechteck_20" data-name="Rechteck 20" width="219.257" height="8.447" transform="translate(7.144 7.796)" stroke-width="1" stroke="#263238" stroke-linecap="round" stroke-linejoin="round" fill="#fff"/>
          <path id="Pfad_228" data-name="Pfad 228" d="M443.578,205.83H348.661A14.071,14.071,0,0,0,334.59,219.9v50.77a14.071,14.071,0,0,0,14.071,14.071h2.91c-2.953,6.515-8.686,16.5-17.741,22.432,0,0,19.261-1.346,39.326-22.432h70.379a14.071,14.071,0,0,0,14.071-14.071V219.9a14.071,14.071,0,0,0-14.028-14.071Z" transform="translate(-230.857 105.521)" fill="#263238" stroke="#263238" stroke-linecap="round" stroke-linejoin="round" stroke-width="1"/>
          <path id="Pfad_229" data-name="Pfad 229" d="M362.826,227.095a7.253,7.253,0,1,0-7.231,7.231,7.253,7.253,0,0,0,7.231-7.231Z" transform="translate(-213.882 121.911)" fill="#92e3a9" stroke="#263238" stroke-linecap="round" stroke-linejoin="round" stroke-width="1"/>
          <path id="Pfad_230" data-name="Pfad 230" d="M374.132,227.071A7.231,7.231,0,1,0,366.9,234.3a7.231,7.231,0,0,0,7.231-7.231Z" transform="translate(-200.585 121.934)" fill="#92e3a9" stroke="#263238" stroke-linecap="round" stroke-linejoin="round" stroke-width="1"/>
          <path id="Pfad_231" data-name="Pfad 231" d="M385.5,227.095a7.253,7.253,0,1,0-7.253,7.231,7.253,7.253,0,0,0,7.253-7.231Z" transform="translate(-187.324 121.911)" fill="#92e3a9" stroke="#263238" stroke-linecap="round" stroke-linejoin="round" stroke-width="1"/>
        </g>
        <g id="freepik--graphics-1--inject-1--inject-3" transform="translate(47.889 30.792)">
          <path id="Pfad_232" data-name="Pfad 232" d="M151.533,76.63H307.882a14.028,14.028,0,0,1,14.028,14.028v108.38H137.57V90.658A14.028,14.028,0,0,1,151.533,76.63Z" transform="translate(-61.133 -76.63)" fill="#fff" stroke="#263238" stroke-linecap="round" stroke-linejoin="round" stroke-width="1"/>
          <rect id="Rechteck_21" data-name="Rechteck 21" width="149.508" height="21.759" rx="10.879" transform="translate(93.809 78.869)" fill="#959595"/>
          <rect id="Rechteck_23" data-name="Rechteck 23" width="187.119" height="78.891" rx="2.82" transform="translate(0 166.924)" stroke-width="1" stroke="#263238" stroke-linecap="round" stroke-linejoin="round" fill="#263238"/>
          <path id="Pfad_234" data-name="Pfad 234" d="M117.378,158.45l.912,1.52c-4.126,2.3-7.969,6.341-7.969,11.075a6.124,6.124,0,0,0,1.552,4.485c1.1,1.226,1.593-1.871,1.771-3.616a4.973,4.973,0,0,1,5.342-4.842,5.472,5.472,0,0,1,5.45,5.646,6.84,6.84,0,0,1-7.166,6.753A8.165,8.165,0,0,1,108.583,171C108.518,165.507,112.753,161.078,117.378,158.45Zm18.653,0,.912,1.52c-4.148,2.3-7.969,6.341-7.969,11.075a6.1,6.1,0,0,0,1.545,4.491c1.1,1.227,1.6-1.877,1.778-3.623a4.951,4.951,0,0,1,5.342-4.842,5.472,5.472,0,0,1,5.451,5.646,6.862,6.862,0,0,1-7.166,6.753A8.187,8.187,0,0,1,127.237,171C127.15,165.507,131.384,161.078,136.031,158.45Z" transform="translate(-95.098 19.223)" fill="#92e3a9"/>
          <line id="Linie_19" data-name="Linie 19" x2="106.491" transform="translate(58.783 193.742)" fill="none" stroke="#fff" stroke-linecap="round" stroke-linejoin="round" stroke-width="1"/>
          <line id="Linie_20" data-name="Linie 20" x2="106.491" transform="translate(58.783 202.884)" fill="none" stroke="#fff" stroke-linecap="round" stroke-linejoin="round" stroke-width="1"/>
          <line id="Linie_21" data-name="Linie 21" x2="106.491" transform="translate(58.783 212.026)" fill="none" stroke="#fff" stroke-linecap="round" stroke-linejoin="round" stroke-width="1"/>
          <line id="Linie_22" data-name="Linie 22" x2="106.491" transform="translate(58.783 221.19)" fill="none" stroke="#fff" stroke-linecap="round" stroke-linejoin="round" stroke-width="1"/>
          <line id="Linie_25" data-name="Linie 25" x2="65.145" transform="translate(106.556 32.269)" fill="none" stroke="#000" stroke-linecap="round" stroke-linejoin="round" stroke-width="1"/>
          <line id="Linie_26" data-name="Linie 26" x2="65.145" transform="translate(106.556 43.126)" fill="none" stroke="#000" stroke-linecap="round" stroke-linejoin="round" stroke-width="1"/>
          <line id="Linie_27" data-name="Linie 27" x2="65.145" transform="translate(106.556 53.984)" fill="none" stroke="#000" stroke-linecap="round" stroke-linejoin="round" stroke-width="1"/>
          <path id="Pfad_321" data-name="Pfad 321" d="M197.593,128.624s88.6,32.325,107.632-18.311S388.47,122.3,388.47,122.3" transform="translate(11.356 -64.672)" fill="none" stroke="#ff5f5f" stroke-width="4" stroke-dasharray="5"/>
          <path id="Pfad_322" data-name="Pfad 322" d="M170.513,177.443s42.207-8.783,42.947-44.382" transform="translate(-20.368 -10.519)" fill="none" stroke="#ff5f5f" stroke-width="4" stroke-dasharray="5"/>
        </g>
        <g id="freepik--Character--inject-1--inject-3" transform="translate(155.943 132.549)">
          <path id="Pfad_236" data-name="Pfad 236" d="M288.752,236.973s23.127,49.358,23.127,51.964-20.521,13.767-24.43,16.113a94.944,94.944,0,0,1-9.359,4.669l2.345,22.866s35.33-8.056,50.14-16.113,14.289-17.155,10.858-30.662-26.254-65.71-26.254-65.71Z" transform="translate(-4.567 -10.31)" fill="#ddb59c"/>
          <g id="Gruppe_10" data-name="Gruppe 10" transform="translate(273.523 209.79)" clip-path="url(#clip-path)">
            <path id="Pfad_237" data-name="Pfad 237" d="M321.619,316.472c14.81-8.056,14.289-17.155,10.858-30.662s-26.254-65.71-26.254-65.71l-3.692,2.345-1.173,2.172s21.3,52.29,22.584,69.706c.869,11.7-22.692,26.3-38.262,34.636C297.232,325.9,312.954,321.184,321.619,316.472Z" transform="translate(-269.198 -220.1)" fill="#ddb59c" opacity="0.5" style="mix-blend-mode: multiply;isolation: isolate"/>
          </g>
          <path id="Pfad_239" data-name="Pfad 239" d="M288.752,236.973s23.127,49.358,23.127,51.964-20.521,13.767-24.43,16.113a94.944,94.944,0,0,1-9.359,4.669l2.345,22.866s35.33-8.056,50.14-16.113,14.289-17.155,10.858-30.662-26.254-65.71-26.254-65.71Z" transform="translate(-4.567 -10.31)" fill="none" stroke="#263238" stroke-linecap="round" stroke-linejoin="round" stroke-width="1"/>
          <path id="Pfad_240" data-name="Pfad 240" d="M215.535,222.85s-16.873,61.823-17.372,72.746,33.506,32.464,34.744,33.767-1.933-37.567-1.933-37.567l11.531-56.459Z" transform="translate(-98.208 -7.089)" fill="#fff"/>
          <g id="Gruppe_11" data-name="Gruppe 11" transform="translate(99.949 215.761)" clip-path="url(#clip-path-2)">
            <path id="Pfad_241" data-name="Pfad 241" d="M223.266,227.91l-.369-1.672-7.361-3.388s-16.873,61.823-17.372,72.746,33.506,32.464,34.744,33.767c.5.521.3-5.3-.109-12.486-10.119-8.578-24.647-20.651-26.34-25.732" transform="translate(-198.158 -222.85)" fill="#92e3a9" opacity="0.5" style="mix-blend-mode: multiply;isolation: isolate"/>
          </g>
          <path id="Pfad_243" data-name="Pfad 243" d="M215.535,222.85s-16.873,61.823-17.372,72.746,33.506,32.464,34.744,33.767-1.933-37.567-1.933-37.567l11.531-56.459Z" transform="translate(-98.208 -7.089)" fill="#ddb59c" stroke="#263238" stroke-linecap="round" stroke-linejoin="round" stroke-width="1"/>
          <path id="Pfad_244" data-name="Pfad 244" d="M291.982,196.842s-6.515,4.69-19.218,5.212-13.311-8.686-29.1-8.686c-19.131,0-43.126,60.52-43.126,60.52s11.943,11.7,23.648,16.634a83.864,83.864,0,0,0,20.26,5.972l1.824,39.76H375.129l1.542-39.76,40.282-26.123s-19.761-35.331-29.359-48.577-25.732-8.317-30.662-4.951S337.389,201.011,332,200.23a215.3,215.3,0,0,1-20.8-5.711S302.9,187.613,291.982,196.842Z" transform="translate(-95.417 -43.186)" fill="#aaa" stroke="#263238" stroke-linecap="round" stroke-linejoin="round" stroke-width="1"/>
          <line id="Linie_23" data-name="Linie 23" x1="0.521" y2="65.992" transform="translate(149.812 167.684)" fill="none" stroke="#263238" stroke-linecap="round" stroke-linejoin="round" stroke-width="0.5"/>
          <path id="Pfad_245" data-name="Pfad 245" d="M223.51,203.47s1.824,32.2,8.686,50.14" transform="translate(-68.508 -29.793)" fill="none" stroke="#263238" stroke-linecap="round" stroke-linejoin="round" stroke-width="0.5"/>
          <path id="Pfad_246" data-name="Pfad 246" d="M228.06,227.75a88.58,88.58,0,0,0,5.45,12.725" transform="translate(-63.177 -1.348)" fill="none" stroke="#263238" stroke-linecap="round" stroke-linejoin="round" stroke-width="0.5"/>
          <path id="Pfad_247" data-name="Pfad 247" d="M225.42,201.79a206.1,206.1,0,0,0,10.4,34.288" transform="translate(-66.27 -31.761)" fill="none" stroke="#263238" stroke-linecap="round" stroke-linejoin="round" stroke-width="0.5"/>
          <path id="Pfad_248" data-name="Pfad 248" d="M283.314,204.42s-6.232,25.472-11.7,36.916" transform="translate(-12.158 -28.68)" fill="none" stroke="#263238" stroke-linecap="round" stroke-linejoin="round" stroke-width="0.5"/>
          <line id="Linie_24" data-name="Linie 24" x1="0.261" y1="51.443" transform="translate(280.993 181.973)" fill="none" stroke="#263238" stroke-linecap="round" stroke-linejoin="round" stroke-width="0.5"/>
          <path id="Pfad_249" data-name="Pfad 249" d="M289.033,207.77s-4.69,32.573-16.113,49.619" transform="translate(-10.623 -24.755)" fill="none" stroke="#263238" stroke-linecap="round" stroke-linejoin="round" stroke-width="0.5"/>
          <path id="Pfad_250" data-name="Pfad 250" d="M282.478,227.63s-5.212,9.88-8.838,15.07" transform="translate(-9.78 -1.489)" fill="none" stroke="#263238" stroke-linecap="round" stroke-linejoin="round" stroke-width="0.5"/>
          <path id="Pfad_251" data-name="Pfad 251" d="M239.3,196.05s3.648,22.345,8.838,33.767,14.289,13.767,22.084,10.4,13.507-20.021,13.029-41.259" transform="translate(-50.009 -38.485)" fill="none" stroke="#263238" stroke-linecap="round" stroke-linejoin="round" stroke-width="0.5"/>
          <path id="Pfad_252" data-name="Pfad 252" d="M236.191,177.428s-4.951-8.556-8.838-4.148,3.127,14.549,7.014,17.915,6.753,1.3,6.515-2.324S236.191,177.428,236.191,177.428Z" transform="translate(-65.337 -66.638)" fill="#92e3a9" stroke="#263238" stroke-linecap="round" stroke-linejoin="round" stroke-width="1"/>
          <path id="Pfad_253" data-name="Pfad 253" d="M236.191,177.428s-4.951-8.556-8.838-4.148,3.127,14.549,7.014,17.915,6.753,1.3,6.515-2.324S236.191,177.428,236.191,177.428Z" transform="translate(-65.337 -66.638)" fill="#fff" opacity="0.5"/>
          <path id="Pfad_254" data-name="Pfad 254" d="M236.191,177.428s-4.951-8.556-8.838-4.148,3.127,14.549,7.014,17.915,6.753,1.3,6.515-2.324S236.191,177.428,236.191,177.428Z" transform="translate(-65.337 -66.638)" fill="none" stroke="#263238" stroke-linecap="round" stroke-linejoin="round" stroke-width="1"/>
          <path id="Pfad_255" data-name="Pfad 255" d="M269.539,177.428s4.929-8.556,8.838-4.148-3.127,14.549-7.014,17.915-6.775,1.3-6.515-2.324S269.539,177.428,269.539,177.428Z" transform="translate(-20.098 -66.638)" fill="#92e3a9" stroke="#263238" stroke-linecap="round" stroke-linejoin="round" stroke-width="1"/>
          <path id="Pfad_256" data-name="Pfad 256" d="M269.539,177.428s4.929-8.556,8.838-4.148-3.127,14.549-7.014,17.915-6.775,1.3-6.515-2.324S269.539,177.428,269.539,177.428Z" transform="translate(-20.098 -66.638)" fill="#fff" opacity="0.5"/>
          <path id="Pfad_257" data-name="Pfad 257" d="M269.539,177.428s4.929-8.556,8.838-4.148-3.127,14.549-7.014,17.915-6.775,1.3-6.515-2.324S269.539,177.428,269.539,177.428Z" transform="translate(-20.098 -66.638)" fill="none" stroke="#263238" stroke-linecap="round" stroke-linejoin="round" stroke-width="1"/>
          <path id="Pfad_258" data-name="Pfad 258" d="M241.57,193.42a279.809,279.809,0,0,0,9.359,32.725c4.69,11.683,13.507,11.683,17.155,4.148s5.972-35.613,5.972-35.613S249.626,198.089,241.57,193.42Z" transform="translate(-47.35 -41.566)" fill="#ddb59c" stroke="#263238" stroke-linecap="round" stroke-linejoin="round" stroke-width="1"/>
          <path id="Pfad_259" data-name="Pfad 259" d="M231.73,206.679s6.753,23.887,19.544,37.936,17.372,17.372,24.169,16.351,14.028-9.859,24.147-28.23,10.858-32.464,11.7-33.767-2.172-27.274-16.634-38.457-30.662-16.091-44.69-3.887S227.04,188.742,231.73,206.679Z" transform="translate(-60.355 -93.022)" fill="#ddb59c"/>
          <g id="Gruppe_12" data-name="Gruppe 12" transform="translate(170.114 56.475)" clip-path="url(#clip-path-3)">
            <path id="Pfad_260" data-name="Pfad 260" d="M294.6,160.469c-14.549-11.162-30.662-16.091-44.69-3.887s-22.866,32.2-18.176,50.14a111.456,111.456,0,0,0,3.822,10.858,8.209,8.209,0,0,1,.326-2.367c3.105-9.837,12.269-28.881,43.1-20.152,24.495,6.905,21.5,28.447,19.218,39.934l1.325-2.389c10.141-18.436,10.858-32.464,11.7-33.767S309.148,171.652,294.6,160.469Z" transform="translate(-230.472 -149.541)" fill="#ddb59c" opacity="0.5" style="mix-blend-mode: multiply;isolation: isolate"/>
          </g>
          <path id="Pfad_262" data-name="Pfad 262" d="M231.73,206.679s6.753,23.887,19.544,37.936,17.372,17.372,24.169,16.351,14.028-9.859,24.147-28.23,10.858-32.464,11.7-33.767-2.172-27.274-16.634-38.457-30.662-16.091-44.69-3.887S227.04,188.742,231.73,206.679Z" transform="translate(-60.355 -93.022)" fill="none" stroke="#263238" stroke-linecap="round" stroke-linejoin="round" stroke-width="1"/>
          <path id="Pfad_263" data-name="Pfad 263" d="M254.793,181.57a105.914,105.914,0,0,0-1.3,15.331c.261,5.19,1.824,6.753-.521,7.275s-4.929-3.127-4.929-3.127" transform="translate(-39.771 -55.449)" fill="none" stroke="#263238" stroke-linecap="round" stroke-linejoin="round" stroke-width="1"/>
          <path id="Pfad_264" data-name="Pfad 264" d="M239.18,183.49a9.207,9.207,0,0,0,10.4.261" transform="translate(-50.15 -53.199)" fill="none" stroke="#263238" stroke-linecap="round" stroke-linejoin="round" stroke-width="1"/>
          <path id="Pfad_265" data-name="Pfad 265" d="M254.38,183.49a9.185,9.185,0,0,0,10.38.261" transform="translate(-32.343 -53.199)" fill="none" stroke="#263238" stroke-linecap="round" stroke-linejoin="round" stroke-width="1"/>
          <path id="Pfad_266" data-name="Pfad 266" d="M258.313,183.794s-4.951-12.226-21.3-6.515" transform="translate(-52.692 -62.255)" fill="none" stroke="#263238" stroke-linecap="round" stroke-linejoin="round" stroke-width="1"/>
          <path id="Pfad_267" data-name="Pfad 267" d="M253.09,182.63s4.148-11.965,18.957-4.951" transform="translate(-33.854 -62.589)" fill="none" stroke="#263238" stroke-linecap="round" stroke-linejoin="round" stroke-width="1"/>
          <path id="Pfad_268" data-name="Pfad 268" d="M266.768,189.008c0,6.688-7.665,12.1-17.133,12.1s-17.155-5.407-17.155-12.1,7.166-9.468,16.634-9.468S266.768,182.341,266.768,189.008Z" transform="translate(-57.999 -57.827)" fill="none" stroke="#263238" stroke-linecap="round" stroke-linejoin="round" stroke-width="1"/>
          <path id="Pfad_269" data-name="Pfad 269" d="M284.958,189.008c0,6.688-7.687,12.1-17.155,12.1s-17.133-5.407-17.133-12.1,7.144-9.468,16.612-9.468S284.958,182.341,284.958,189.008Z" transform="translate(-36.689 -57.827)" fill="none" stroke="#263238" stroke-linecap="round" stroke-linejoin="round" stroke-width="1"/>
          <path id="Pfad_270" data-name="Pfad 270" d="M166.2,279.83,165.14,543.082a3.127,3.127,0,0,0,3.127,3.127h0a3.105,3.105,0,0,0,3.105-3.018L178.886,280.2Z" transform="translate(-136.889 59.664)" fill="#fff" stroke="#263238" stroke-linecap="round" stroke-linejoin="round" stroke-width="1"/>
          <path id="Pfad_271" data-name="Pfad 271" d="M158.021,308.17,157,580.325a3.105,3.105,0,0,0,3.127,3.127h0a3.127,3.127,0,0,0,3.127-3l7.492-271.938Z" transform="translate(-146.425 92.864)" fill="#fff" stroke="#263238" stroke-linecap="round" stroke-linejoin="round" stroke-width="1"/>
          <path id="Pfad_272" data-name="Pfad 272" d="M340.06,279.83l1.064,263.252a3.105,3.105,0,0,1-3.105,3.127h0a3.127,3.127,0,0,1-3.127-3.018L327.4,280.2Z" transform="translate(53.201 59.664)" fill="#fff" stroke="#263238" stroke-linecap="round" stroke-linejoin="round" stroke-width="1"/>
          <path id="Pfad_273" data-name="Pfad 273" d="M348.242,308.17l1.064,272.155a3.105,3.105,0,0,1-3.127,3.127h0a3.105,3.105,0,0,1-3.105-3L335.56,308.517Z" transform="translate(62.76 92.864)" fill="#fff" stroke="#263238" stroke-linecap="round" stroke-linejoin="round" stroke-width="1"/>
          <path id="Pfad_274" data-name="Pfad 274" d="M214.638,313.38l-.63,241.559a2.345,2.345,0,0,0,1.976,2.584h0a2.323,2.323,0,0,0,2-2.475l4.712-241.385Z" transform="translate(-79.657 98.968)" fill="#fff" stroke="#263238" stroke-linecap="round" stroke-linejoin="round" stroke-width="1"/>
          <path id="Pfad_275" data-name="Pfad 275" d="M288.367,309.8l.586,210.81a2,2,0,0,1-1.694,2.171h0a1.976,1.976,0,0,1-1.672-2.172L281.57,309.974Z" transform="translate(-0.49 94.774)" fill="#fff" stroke="#263238" stroke-linecap="round" stroke-linejoin="round" stroke-width="1"/>
          <path id="Pfad_276" data-name="Pfad 276" d="M216.867,309.8l.586,210.81a2,2,0,0,1-1.694,2.171h0a1.976,1.976,0,0,1-1.672-2.172L210.07,309.974Z" transform="translate(-84.253 94.774)" fill="#fff" stroke="#263238" stroke-linecap="round" stroke-linejoin="round" stroke-width="1"/>
          <path id="Pfad_277" data-name="Pfad 277" d="M287.013,313.38l.673,241.559a2.345,2.345,0,0,1-1.976,2.584h0a2.345,2.345,0,0,1-2-2.475L279,313.662Z" transform="translate(-3.501 98.968)" fill="#fff" stroke="#263238" stroke-linecap="round" stroke-linejoin="round" stroke-width="1"/>
          <ellipse id="Ellipse_48" data-name="Ellipse 48" cx="96.632" cy="22.084" rx="96.632" ry="22.084" transform="translate(111.55 385.096)" fill="#fff" stroke="#263238" stroke-linecap="round" stroke-linejoin="round" stroke-width="1"/>
          <path id="Pfad_278" data-name="Pfad 278" d="M230.156,400.311s-5.06,7.253-1.433,10.858,7.231,2.172,6.862,5.8-6.145,15.917-11.205,28.946,5.429,26.058,15.2,22.453,8.686-39.826,10.119-46.34,2.541-7.6,2.171-13.746-.717-12.66-5.429-13.4S232.328,397.792,230.156,400.311Z" transform="translate(-69.03 194.335)" fill="#fff" stroke="#263238" stroke-linecap="round" stroke-linejoin="round" stroke-width="1"/>
          <path id="Pfad_279" data-name="Pfad 279" d="M245.418,425.08c-6.515-2.476-16.5-1.976-22.128-1.411,1.889,8.187,9.12,13.941,16.026,11.4C242.2,434.005,244.093,430.14,245.418,425.08Z" transform="translate(-68.765 227.632)" fill="#535d7b" stroke="#263238" stroke-linecap="round" stroke-linejoin="round" stroke-width="1"/>
          <path id="Pfad_280" data-name="Pfad 280" d="M221.17,392.929s10.488,17.741,13.376,22.432,12.682,3.257,13.767-3.257-4-24.6-4-24.6L222.6,392.929Z" transform="translate(-71.249 185.8)" fill="#aa8972" stroke="#263238" stroke-linecap="round" stroke-linejoin="round" stroke-width="1"/>
          <path id="Pfad_281" data-name="Pfad 281" d="M210.675,383.831s-2.91,4.712-1.455,7.969,5.429,12.66,7.969,17.372,14.115,7.6,27.491,5.429,21-8.339,21.368-13.767-2.172-12.66-4-21.346-6.515-8.317-13.029-8.317S216.1,378.771,210.675,383.831Z" transform="translate(-85.726 166.668)" fill="#535d7b" stroke="#263238" stroke-linecap="round" stroke-linejoin="round" stroke-width="1"/>
          <path id="Pfad_282" data-name="Pfad 282" d="M264.409,358.729c.2-8.9,5.342-13.29,5.733-19.392a76.742,76.742,0,0,0-1.976-24.039l-9.9-13.529c-28.49.369-48.9.847-49.228.955-1.086.347-1.824,6.515-2.541,11.574,0,0-12.1,1.542-9.924,35.2.3,4.69,12.508,58.956,13.4,65.145,5.429,37.806,17.524,56.742,17.524,56.742s1.086,4.712,15.2,3.626,28.23-10.488,28.23-10.488S263.67,390.932,264.409,358.729Z" transform="translate(-100.373 85.367)" fill="#263238" stroke="#263238" stroke-linecap="round" stroke-linejoin="round" stroke-width="1"/>
          <path id="Pfad_283" data-name="Pfad 283" d="M215.2,305.954s-14.962,2.172-24.125,12.638-1.39,17.372,16.417,15.5,38.349-20.086,39.217-21.064S228.144,299.678,215.2,305.954Z" transform="translate(-111.035 88.197)" fill="#fff" stroke="#263238" stroke-linecap="round" stroke-linejoin="round" stroke-width="1"/>
          <path id="Pfad_284" data-name="Pfad 284" d="M215.15,315.029a141.3,141.3,0,0,1,28.23,4.343c12.312,3.626,34.028,10.858,39.087,10.858s3.626-18.827,3.626-22.432-65.145-5.8-73.115-5.8S215.15,315.029,215.15,315.029Z" transform="translate(-84.425 85.636)" fill="#fff" stroke="#263238" stroke-linecap="round" stroke-linejoin="round" stroke-width="1"/>
          <path id="Pfad_285" data-name="Pfad 285" d="M250.9,304.677s-5.8,2.888-7.969,13.746-5.06,16.656-.717,19.544,23.17,5.06,26.058,2.172,10.858-17.372,12.313-26.775S250.9,304.677,250.9,304.677Z" transform="translate(-49.234 88.757)" fill="#535d7b" stroke="#263238" stroke-linecap="round" stroke-linejoin="round" stroke-width="1"/>
          <path id="Pfad_286" data-name="Pfad 286" d="M262.574,316.7a45.362,45.362,0,0,0-7.948,13.029,121.088,121.088,0,0,0-3.626,15.2,141.26,141.26,0,0,1,20.26,7.253c11.6,5.06,31.139,8.686,49.945,13.029s23.887,8.686,30.4,8.686,14.484-5.081,24.625-17.372,1.433-38.371-8.686-46.34-64.429-14.462-71.66-12.291S262.574,316.7,262.574,316.7Z" transform="translate(-36.303 80.335)" fill="#263238" stroke="#263238" stroke-linecap="round" stroke-linejoin="round" stroke-width="1"/>
          <path id="Pfad_287" data-name="Pfad 287" d="M201.5,327.645a43.625,43.625,0,0,0-8.469-17.785c-.673.63-1.325,1.281-1.954,2C183.02,321.022,188.058,327.536,201.5,327.645Z" transform="translate(-111.034 94.844)" fill="#535d7b" stroke="#263238" stroke-linecap="round" stroke-linejoin="round" stroke-width="1"/>
          <path id="Pfad_288" data-name="Pfad 288" d="M239.414,320.69s-7.47,79.933-22.714,92.376" transform="translate(-76.486 107.532)" fill="none" stroke="#fff" stroke-linecap="round" stroke-linejoin="round" stroke-width="0.5"/>
          <path id="Pfad_289" data-name="Pfad 289" d="M236.316,355.63s-5.928,26.058-21.476,36.416" transform="translate(-78.665 148.464)" fill="none" stroke="#fff" stroke-linecap="round" stroke-linejoin="round" stroke-width="0.5"/>
          <path id="Pfad_290" data-name="Pfad 290" d="M276.088,314s-23.17,1.455-7.969,11.574,42.714,16.656,42.714,16.656" transform="translate(-22.303 99.694)" fill="none" stroke="#fff" stroke-linecap="round" stroke-linejoin="round" stroke-width="0.5"/>
          <path id="Pfad_291" data-name="Pfad 291" d="M574.12,329.448l-7.817-7.036-18.067-39.087a10.4,10.4,0,0,0-9.468-5.885H187.851a10.4,10.4,0,0,0-9.489,5.885L155.843,332.01l-3.713-1.368v11.14l.174-.13a6.189,6.189,0,0,0,6.232,5.277H568.061a6.1,6.1,0,0,0,6.232-5.755Z" transform="translate(-152.13 56.864)" fill="#263238" stroke="#263238" stroke-linecap="round" stroke-linejoin="round" stroke-width="1"/>
          <path id="Pfad_292" data-name="Pfad 292" d="M567.967,342.239H158.442a5.993,5.993,0,0,1-5.733-8.382l25.559-55.221a10.358,10.358,0,0,1,9.489-5.885H538.673a10.358,10.358,0,0,1,9.468,5.885L573.7,333.857a5.993,5.993,0,0,1-5.733,8.382Z" transform="translate(-152.036 51.369)" fill="#fff" stroke="#263238" stroke-linecap="round" stroke-linejoin="round" stroke-width="1"/>
          <path id="Pfad_293" data-name="Pfad 293" d="M167.533,301.943s-9.272,6.363-3.474,8.686,72.442.586,80.563-1.737,17.372-23.756,17.372-27.231-11.683-5.972-15.982-6.167-61.106,3.257-61.106,3.257Z" transform="translate(-140.389 54.575)" fill="#bfbfbf" opacity="0.5" style="mix-blend-mode: multiply;isolation: isolate"/>
          <ellipse id="Ellipse_49" data-name="Ellipse 49" cx="23.756" cy="9.859" rx="23.756" ry="9.859" transform="translate(334.89 347.811)" fill="#92e3a9" opacity="0.5" style="mix-blend-mode: multiply;isolation: isolate"/>
          <ellipse id="Ellipse_50" data-name="Ellipse 50" cx="85.188" cy="15.939" rx="85.188" ry="15.939" transform="translate(122.213 347.833)" fill="#bfbfbf" opacity="0.5" style="mix-blend-mode: multiply;isolation: isolate"/>
          <path id="Pfad_294" data-name="Pfad 294" d="M315.26,272.808s-1.563-6.232-6.753-4.148-4.669,15.852-3.648,23.648,8.056,4.148,8.056,4.148v-4.669s-2.584,2.063-3.887-.782-1.042-17.155.261-16.894,3.887,4.669,3.887,4.669S313.957,278.28,315.26,272.808Z" transform="translate(26.014 46.078)" fill="#92e3a9" stroke="#263238" stroke-linecap="round" stroke-linejoin="round" stroke-width="1"/>
          <path id="Pfad_295" data-name="Pfad 295" d="M307.57,270.82v34.136c0,4.017,9.229,7.275,20.629,7.275s20.608-3.257,20.608-7.275V270.82Z" transform="translate(29.969 49.109)" fill="#aaa" stroke="#263238" stroke-linecap="round" stroke-linejoin="round" stroke-width="1"/>
          <path id="Pfad_296" data-name="Pfad 296" d="M348.807,274.206c0,3.474-9.229,6.276-20.608,6.276s-20.629-2.8-20.629-6.276,9.229-6.276,20.629-6.276S348.807,270.753,348.807,274.206Z" transform="translate(29.969 45.723)" fill="#fff" stroke="#263238" stroke-linecap="round" stroke-linejoin="round" stroke-width="1"/>
          <path id="Pfad_297" data-name="Pfad 297" d="M344.662,273.761c0,3.018-8.035,5.451-17.915,5.451s-17.937-2.432-17.937-5.451,8.035-5.451,17.937-5.451S344.662,270.742,344.662,273.761Z" transform="translate(31.422 46.168)" fill="#fff" stroke="#263238" stroke-linecap="round" stroke-linejoin="round" stroke-width="1"/>
          <path id="Pfad_298" data-name="Pfad 298" d="M310.7,273.486a49.338,49.338,0,0,0,27.643,0,49.337,49.337,0,0,0-27.643,0Z" transform="translate(33.636 49.917)" fill="#263238" stroke="#263238" stroke-linecap="round" stroke-linejoin="round" stroke-width="1"/>
          <path id="Pfad_299" data-name="Pfad 299" d="M163.45,278.562l.261,11.683,78.717.782V277.52Z" transform="translate(-138.869 56.958)" fill="#fff" stroke="#263238" stroke-linecap="round" stroke-linejoin="round" stroke-width="1"/>
          <path id="Pfad_300" data-name="Pfad 300" d="M200.1,300.973,211.545,276.3V269.03L199.58,289.811Z" transform="translate(-96.542 47.012)" fill="#fff" stroke="#263238" stroke-linecap="round" stroke-linejoin="round" stroke-width="1"/>
          <path id="Pfad_301" data-name="Pfad 301" d="M163.45,283.451l.261,11.7,78.717.782V282.43Z" transform="translate(-138.869 62.71)" fill="#fff" stroke="#263238" stroke-linecap="round" stroke-linejoin="round" stroke-width="1"/>
          <path id="Pfad_302" data-name="Pfad 302" d="M200.1,305.895l11.444-24.69V273.93L199.58,294.711Z" transform="translate(-96.542 52.752)" fill="#fff" stroke="#263238" stroke-linecap="round" stroke-linejoin="round" stroke-width="1"/>
          <path id="Pfad_303" data-name="Pfad 303" d="M200.9,267.363s1.824-3.626-.782-5.19-5.451,2.172-7.014,3.366-34.288,22.866-35.33,26.254,0,10.858,7.014,11.683,13.246-3.887,16.373-4.669,4.343-1.042,4.343-1.042l21.563-29.1Z" transform="translate(-145.92 38.538)" fill="#fff" stroke="#263238" stroke-linecap="round" stroke-linejoin="round" stroke-width="1"/>
          <path id="Pfad_304" data-name="Pfad 304" d="M164.808,287.879c7.014.782,13.246-3.887,16.373-4.669s4.343-1.042,4.343-1.042l.782-1.064-20.26-4.126a6.8,6.8,0,0,0-8.317-.782C156.751,279.54,157.794,287.075,164.808,287.879Z" transform="translate(-145.937 54.156)" fill="#fff" stroke="#263238" stroke-linecap="round" stroke-linejoin="round" stroke-width="1"/>
          <path id="Pfad_305" data-name="Pfad 305" d="M161.42,289.6h60.8c18.979,0,24.69-1.042,24.69-1.042L258.6,264.39s-36.916,2.345-48.316,1.563a85.961,85.961,0,0,1-14.028-1.563Z" transform="translate(-141.247 41.576)" fill="#fff" stroke="#263238" stroke-linecap="round" stroke-linejoin="round" stroke-width="1"/>
          <path id="Pfad_306" data-name="Pfad 306" d="M161.42,276.574l1.042,4.669s49.358.261,62.344.261,22.866.521,22.866.521l-.782-6.515Z" transform="translate(-141.247 54.603)" fill="#fff" stroke="#263238" stroke-linecap="round" stroke-linejoin="round" stroke-width="1"/>
          <path id="Pfad_307" data-name="Pfad 307" d="M201.562,295.022l10.9-24.951V264.36L200.78,288.529Z" transform="translate(-95.136 41.541)" fill="#fff" stroke="#263238" stroke-linecap="round" stroke-linejoin="round" stroke-width="1"/>
          <path id="Pfad_308" data-name="Pfad 308" d="M363.566,294.615H214.709a2.5,2.5,0,0,1-2.519-2.5h0a2.5,2.5,0,0,1,2.519-2.5H363.566a2.476,2.476,0,0,1,2.5,2.5h0a2.476,2.476,0,0,1-2.5,2.5Z" transform="translate(-81.769 71.133)" fill="#fff" stroke="#263238" stroke-linecap="round" stroke-linejoin="round" stroke-width="1"/>
          <path id="Pfad_309" data-name="Pfad 309" d="M369.778,345.376H218.38a2.172,2.172,0,0,1-2.172-2.041l-8.23-98.912a2.172,2.172,0,0,1,2.172-2.432H378.029a2.171,2.171,0,0,1,2.172,2.432l-8.23,98.912A2.172,2.172,0,0,1,369.778,345.376Z" transform="translate(-86.721 15.334)" fill="#eaeaea" stroke="#263238" stroke-linecap="round" stroke-linejoin="round" stroke-width="1"/>
          <path id="Pfad_311" data-name="Pfad 311" d="M322.33,238.416a12.9,12.9,0,0,0,4.625-7.231,13.354,13.354,0,0,0-.152-6.515" transform="translate(47.261 -4.957)" fill="none" stroke="#263238" stroke-linecap="round" stroke-linejoin="round" stroke-width="1"/>
          <path id="Pfad_312" data-name="Pfad 312" d="M320.243,306.679s14.44-8.686,9.728-18.61-20.651-16.5-20.651-31.965c0-13.333,14.18-18.262,23.431-23.6" transform="translate(32.02 4.216)" fill="none" stroke="#263238" stroke-linecap="round" stroke-linejoin="round" stroke-width="1"/>
          <path id="Pfad_313" data-name="Pfad 313" d="M323.782,284.068s8.056-5.364,8.056-13.876c0-5.711-6.1-9.446-14.158-18.632" transform="translate(41.813 26.545)" fill="none" stroke="#263238" stroke-linecap="round" stroke-linejoin="round" stroke-width="1"/>
          <path id="Pfad_314" data-name="Pfad 314" d="M317.15,255.443s-5.277-4.148-1.39-11.943" transform="translate(37.891 17.103)" fill="none" stroke="#263238" stroke-linecap="round" stroke-linejoin="round" stroke-width="1"/>
          <path id="Pfad_315" data-name="Pfad 315" d="M297.757,168.571c2.584-.543,8.121-2.671,11.856-11.335a1.086,1.086,0,0,0-.565-1.433,1.107,1.107,0,0,0-1.433.565c-3.431,7.948-8.339,9.707-10.38,10.1a24.929,24.929,0,0,0,5.711-15.7c0-15.07-13.963-27.274-31.183-27.274s-31.183,12.2-31.183,27.274a24.929,24.929,0,0,0,5.212,15.2c-3.279-.174-8.816,1.216-15.83,9.4a1.107,1.107,0,0,0,0,1.542,1.129,1.129,0,0,0,.717.261,1.064,1.064,0,0,0,.825-.391c8.968-10.445,14.9-8.686,16.091-8.208a31.925,31.925,0,0,0-5.668,3.974c-10.011,9.012-16.113,26.058-15.331,40.26a52.356,52.356,0,0,0,9.88,26.058A60.585,60.585,0,0,0,254.131,219.1a165.941,165.941,0,0,0,8.686-17.741c0,6.363.825,14.05,4.169,19.544a27.709,27.709,0,0,0,24.364,14.245,22.953,22.953,0,0,0,5.1-.5,1.086,1.086,0,0,0,.695-.543c8.382,1.781,16.721,1.629,18-.152,2.063-2.845,4.994-11.726,5.972-22.584C322.9,192.957,311.307,176.974,297.757,168.571Zm-28.751,51.009c-4.213-6.884-4.082-18.11-3.583-24.56l.282-.738a44.212,44.212,0,0,0,17.654,34.028,31.813,31.813,0,0,0,9.62,4.5c-5.32.369-16.265-.652-23.973-13.225Z" transform="translate(-64.971 -123.49)" fill="#263238"/>
          <path id="Pfad_316" data-name="Pfad 316" d="M246.29,152s-1.781,13.159,14.94,26.058,32.573,7.817,32.573,7.817" transform="translate(-41.885 -90.09)" fill="none" stroke="#fff" stroke-linecap="round" stroke-linejoin="round" stroke-width="0.5"/>
          <path id="Pfad_317" data-name="Pfad 317" d="M247.39,150S265,175.646,289.322,168.957" transform="translate(-40.532 -92.433)" fill="none" stroke="#fff" stroke-linecap="round" stroke-linejoin="round" stroke-width="0.5"/>
          <path id="Pfad_318" data-name="Pfad 318" d="M260.461,147.064a17,17,0,0,0-17.611,1.346c-9.359,6.232-14.05,20.955-14.05,20.955" transform="translate(-62.31 -98.031)" fill="none" stroke="#fff" stroke-linecap="round" stroke-linejoin="round" stroke-width="0.5"/>
          <path id="Pfad_319" data-name="Pfad 319" d="M253.337,149.593s-7.579-2.02-12.269,2.671a30.227,30.227,0,0,0-5.8,7.144" transform="translate(-54.731 -93.416)" fill="none" stroke="#fff" stroke-linecap="round" stroke-linejoin="round" stroke-width="0.5"/>
        </g>
      </g>
      <path id="Pfad_320" data-name="Pfad 320" d="M243.415,246.64c-11.54,0-20.9,9.1-20.9,20.325s20.9,36.451,20.9,36.451,20.9-25.225,20.9-36.451-9.355-20.325-20.9-20.325Zm-.194,28.4a8.376,8.376,0,1,1,8.607-8.372,8.231,8.231,0,0,1-2.513,5.928A8.7,8.7,0,0,1,243.221,275.042Z" transform="translate(1139.057 -9.043)" fill="#263238"/>
    </g>
  </g>
</svg>
