<?xml version="1.0" encoding="UTF-8" standalone="no"?>
<!DOCTYPE svg PUBLIC "-//W3C//DTD SVG 1.1//EN" "http://www.w3.org/Graphics/SVG/1.1/DTD/svg11.dtd">
<svg width="100%" height="100%" viewBox="0 0 120 120" version="1.1" xmlns="http://www.w3.org/2000/svg" xmlns:xlink="http://www.w3.org/1999/xlink" xml:space="preserve" xmlns:serif="http://www.serif.com/" style="fill-rule:evenodd;clip-rule:evenodd;stroke-linejoin:round;stroke-miterlimit:2;">
    <g transform="matrix(0.614584,0,0,0.614584,-485.783,-0.631342)">
        <g transform="matrix(68.4,0,0,72,821.061,114)">
            <path d="M0.188,0.009L0.063,-0.282C0.049,-0.313 0.038,-0.331 0.03,-0.338C0.021,-0.345 0.009,-0.348 -0.008,-0.348L-0.008,-0.4L0.26,-0.4L0.26,-0.348C0.227,-0.348 0.21,-0.342 0.21,-0.33C0.21,-0.323 0.214,-0.312 0.221,-0.294L0.283,-0.144L0.4,-0.4L0.483,-0.4L0.602,-0.144L0.665,-0.301C0.669,-0.311 0.67,-0.318 0.67,-0.323C0.67,-0.34 0.652,-0.348 0.614,-0.348L0.614,-0.4L0.788,-0.4L0.788,-0.348C0.77,-0.348 0.756,-0.343 0.747,-0.332C0.737,-0.321 0.724,-0.296 0.708,-0.258L0.596,0.009L0.51,0.009L0.39,-0.247L0.274,0.009L0.188,0.009Z" style="fill:white;fill-rule:nonzero;"/>
        </g>
        <g transform="matrix(68.4,0,0,72,869.095,114)">
            <path d="M0.239,-0.674L0.239,-0.117C0.239,-0.092 0.243,-0.075 0.251,-0.065C0.259,-0.056 0.278,-0.052 0.307,-0.052L0.307,0L0.01,0L0.01,-0.052C0.036,-0.052 0.054,-0.055 0.065,-0.061C0.076,-0.067 0.081,-0.086 0.081,-0.117L0.081,-0.521C0.081,-0.547 0.077,-0.564 0.069,-0.573C0.06,-0.582 0.041,-0.586 0.01,-0.586L0.01,-0.638L0.239,-0.674Z" style="fill:white;fill-rule:nonzero;"/>
        </g>
        <g transform="matrix(68.4,0,0,72,885.067,114)">
            <path d="M0.037,-0.201C0.037,-0.268 0.061,-0.321 0.108,-0.359C0.156,-0.397 0.213,-0.416 0.281,-0.416C0.347,-0.416 0.404,-0.398 0.453,-0.361C0.501,-0.324 0.526,-0.27 0.526,-0.201C0.526,-0.135 0.502,-0.082 0.454,-0.043C0.406,-0.003 0.348,0.016 0.28,0.016C0.214,0.016 0.157,-0.003 0.109,-0.04C0.061,-0.077 0.037,-0.131 0.037,-0.201ZM0.205,-0.206C0.205,-0.144 0.21,-0.1 0.222,-0.075C0.233,-0.05 0.254,-0.038 0.282,-0.038C0.305,-0.038 0.324,-0.048 0.338,-0.069C0.351,-0.09 0.358,-0.134 0.358,-0.202C0.358,-0.264 0.352,-0.306 0.34,-0.328C0.327,-0.35 0.308,-0.361 0.281,-0.361C0.26,-0.361 0.242,-0.351 0.227,-0.333C0.212,-0.314 0.205,-0.272 0.205,-0.206Z" style="fill:white;fill-rule:nonzero;"/>
        </g>
        <g transform="matrix(68.4,0,0,72,918.138,114)">
            <path d="M0.157,-0.143C0.121,-0.152 0.094,-0.169 0.074,-0.194C0.054,-0.219 0.044,-0.246 0.044,-0.274C0.044,-0.32 0.064,-0.355 0.104,-0.379C0.144,-0.403 0.195,-0.415 0.257,-0.415C0.292,-0.415 0.322,-0.412 0.348,-0.405C0.374,-0.398 0.395,-0.387 0.413,-0.373C0.447,-0.402 0.475,-0.416 0.499,-0.416C0.531,-0.416 0.547,-0.4 0.547,-0.369C0.547,-0.342 0.536,-0.329 0.514,-0.329C0.506,-0.329 0.494,-0.335 0.48,-0.347C0.474,-0.351 0.469,-0.354 0.464,-0.354C0.458,-0.354 0.45,-0.35 0.442,-0.342C0.454,-0.322 0.46,-0.299 0.46,-0.274C0.46,-0.235 0.445,-0.201 0.414,-0.174C0.382,-0.146 0.326,-0.13 0.245,-0.127C0.211,-0.126 0.188,-0.122 0.175,-0.116C0.162,-0.11 0.155,-0.101 0.155,-0.089C0.155,-0.072 0.176,-0.063 0.219,-0.063C0.228,-0.063 0.249,-0.064 0.282,-0.065C0.293,-0.065 0.305,-0.065 0.316,-0.065C0.387,-0.065 0.439,-0.054 0.47,-0.032C0.502,-0.01 0.518,0.026 0.518,0.075C0.518,0.126 0.496,0.167 0.452,0.199C0.408,0.232 0.341,0.248 0.252,0.248C0.167,0.248 0.11,0.237 0.079,0.215C0.048,0.194 0.032,0.17 0.032,0.143C0.032,0.126 0.038,0.112 0.049,0.101C0.06,0.09 0.073,0.085 0.088,0.085C0.1,0.085 0.113,0.089 0.129,0.096C0.127,0.102 0.125,0.108 0.124,0.113C0.123,0.118 0.122,0.123 0.122,0.128C0.122,0.151 0.133,0.168 0.156,0.179C0.179,0.191 0.213,0.196 0.259,0.196C0.315,0.196 0.358,0.188 0.386,0.172C0.414,0.156 0.428,0.137 0.428,0.114C0.428,0.092 0.419,0.078 0.399,0.072C0.38,0.066 0.336,0.063 0.267,0.063C0.192,0.063 0.137,0.056 0.105,0.04C0.072,0.024 0.056,-0.003 0.056,-0.041C0.056,-0.067 0.064,-0.089 0.081,-0.106C0.098,-0.123 0.123,-0.135 0.157,-0.143ZM0.196,-0.278C0.196,-0.247 0.201,-0.224 0.211,-0.208C0.221,-0.192 0.236,-0.184 0.255,-0.184C0.274,-0.184 0.288,-0.192 0.298,-0.208C0.307,-0.225 0.312,-0.249 0.312,-0.282C0.312,-0.31 0.306,-0.331 0.295,-0.343C0.284,-0.356 0.27,-0.362 0.254,-0.362C0.235,-0.362 0.22,-0.355 0.211,-0.341C0.201,-0.327 0.196,-0.306 0.196,-0.278Z" style="fill:white;fill-rule:nonzero;"/>
        </g>
    </g>
</svg>
